<?xml version="1.0" encoding="UTF-8"?><svg id="Layer_2" xmlns="http://www.w3.org/2000/svg" viewBox="0 0 196.71 191.78"><defs><style>.cls-1,.cls-2{fill:#00a79d;}.cls-2{opacity:.5;}</style></defs><g id="Layer_1-2"><g><polygon class="cls-1" points="77.26 7.21 119.37 7.21 124.02 12.59 72.61 12.59 77.26 7.21"/><polygon class="cls-1" points="119.94 184.08 76.78 184.08 72.42 178.98 124.26 178.98 119.94 184.08"/><polygon class="cls-2" points="183.14 90.65 183.14 102.22 189.36 96.44 183.14 90.65"/><polygon class="cls-1" points="152.51 22.49 152.51 20.17 128.8 20.17 131.28 22.49 152.51 22.49"/><path class="cls-1" d="M141.5,6.98c.75,0,1.37,.74,1.48,1.71h14.76V0l26.9,36.17h10.82v14.92c.7,.17,1.24,.99,1.24,1.99,0,1.11-.67,2.02-1.5,2.02s-1.5-.91-1.5-2.02c0-1,.54-1.82,1.24-1.99v-14.21h-10.51L158.27,1.71v7.68h-15.29c-.14,.93-.75,1.63-1.48,1.63-.83,0-1.5-.91-1.5-2.02s.67-2.02,1.5-2.02Z"/><path class="cls-1" d="M141.5,184.81c.75,0,1.37-.74,1.48-1.71h14.76v8.68l26.9-36.17h10.82v-14.92c.7-.17,1.24-.99,1.24-1.99,0-1.12-.67-2.02-1.5-2.02s-1.5,.91-1.5,2.02c0,1,.54,1.82,1.24,1.99v14.21h-10.51l-26.16,35.17v-7.68h-15.29c-.14-.93-.75-1.63-1.48-1.63-.83,0-1.5,.91-1.5,2.02s.67,2.02,1.5,2.02Z"/><polygon class="cls-1" points="152.51 169.15 152.51 171.47 128.8 171.47 131.28 169.15 152.51 169.15"/><polygon class="cls-2" points="13.56 90.65 13.56 102.22 7.35 96.44 13.56 90.65"/><polygon class="cls-1" points="44.2 22.49 44.2 20.17 67.91 20.17 65.42 22.49 44.2 22.49"/><path class="cls-1" d="M55.2,6.98c-.75,0-1.37,.74-1.48,1.71h-14.76V0L12.06,36.17H1.24v14.92c-.71,.17-1.24,.99-1.24,1.99,0,1.11,.67,2.02,1.5,2.02s1.5-.91,1.5-2.02c0-1-.53-1.82-1.24-1.99v-14.21H12.28L38.44,1.71v7.68h15.29c.14,.93,.74,1.63,1.47,1.63,.83,0,1.5-.91,1.5-2.02s-.67-2.02-1.5-2.02Z"/><path class="cls-1" d="M55.2,184.81c-.75,0-1.37-.74-1.48-1.71h-14.76v8.68l-26.9-36.17H1.24v-14.92c-.71-.17-1.24-.99-1.24-1.99,0-1.12,.67-2.02,1.5-2.02s1.5,.91,1.5,2.02c0,1-.53,1.82-1.24,1.99v14.21H12.28l26.16,35.17v-7.68h15.29c.14-.93,.74-1.63,1.47-1.63,.83,0,1.5,.91,1.5,2.02s-.67,2.02-1.5,2.02Z"/><polygon class="cls-1" points="44.2 169.15 44.2 171.47 67.91 171.47 65.42 169.15 44.2 169.15"/><polygon class="cls-1" points="192.37 168.05 192.35 117.43 180.98 102.15 180.98 94.13 179.99 94.13 179.99 102.7 191.36 117.99 191.34 169.47 182.46 181.52 164.5 181.52 161.83 179.31 152.48 179.31 152.48 174.45 127.74 174.45 119.04 183.91 98.92 183.91 97.5 183.91 77.38 183.91 68.67 174.45 43.94 174.45 43.94 179.31 34.59 179.31 31.92 181.52 13.96 181.52 5.08 169.47 5.06 117.99 16.43 102.7 16.43 94.13 15.44 94.13 15.44 102.15 4.07 117.43 4.04 168.05 4.04 168.05 4.04 169.61 5.08 171.01 12.9 181.52 14.93 184.25 15.4 184.89 15.98 185.66 28.95 185.66 34.83 180.64 44.93 180.64 44.93 175.78 68.25 175.78 76.95 185.25 97.5 185.25 98.92 185.25 119.47 185.25 128.17 175.78 151.48 175.78 151.48 180.64 161.59 180.64 167.47 185.66 180.44 185.66 181.01 184.89 181.49 184.25 183.52 181.52 191.33 171.01 192.37 169.61 192.37 168.05 192.37 168.05"/><polygon class="cls-1" points="4.04 23.82 4.07 74.43 15.44 89.72 15.44 97.74 16.43 97.74 16.43 89.17 5.06 73.88 5.08 22.4 13.96 10.35 31.92 10.35 34.59 12.56 43.94 12.56 43.94 17.42 68.67 17.42 77.38 7.96 97.5 7.96 98.92 7.96 119.04 7.96 127.74 17.42 152.48 17.42 152.48 12.56 161.83 12.56 164.5 10.35 182.46 10.35 191.34 22.4 191.36 73.88 179.99 89.17 179.99 97.74 180.98 97.74 180.98 89.72 192.35 74.43 192.37 23.82 192.37 23.82 192.37 22.26 191.33 20.86 183.52 10.35 181.49 7.62 181.01 6.98 180.44 6.21 167.47 6.21 161.59 11.23 151.48 11.23 151.48 16.09 128.17 16.09 119.47 6.62 98.92 6.62 97.5 6.62 76.95 6.62 68.25 16.09 44.93 16.09 44.93 11.23 34.83 11.23 28.95 6.21 15.98 6.21 15.4 6.98 14.93 7.62 12.9 10.35 5.08 20.86 4.04 22.26 4.04 23.82 4.04 23.82"/></g></g></svg>