<?xml version="1.0" encoding="UTF-8"?><svg xmlns="http://www.w3.org/2000/svg" viewBox="0 0 111.33 17.38"><defs><style>.cls-1{isolation:isolate;}.cls-2,.cls-3,.cls-4{mix-blend-mode:color-dodge;}.cls-2,.cls-5{fill:#2b3990;}.cls-6{fill:#00a79d;}.cls-4{opacity:.3;}</style></defs><g class="cls-1"><g id="Layer_2"><g id="Layer_1-2"><g><g class="cls-4"><polygon class="cls-6" points="95.99 .04 15.33 .04 2.87 8.69 15.33 17.34 95.99 17.34 108.45 8.69 95.99 .04"/></g><polygon class="cls-2" points="0 8.61 6.99 13.59 8.66 13.59 1.67 8.61 9.36 3.48 7.69 3.48 0 8.61"/><polygon class="cls-2" points="0 8.61 6.99 13.59 8.66 13.59 1.67 8.61 9.36 3.48 7.69 3.48 0 8.61"/><polygon class="cls-2" points="111.33 8.61 104.34 13.59 102.67 13.59 109.66 8.61 101.97 3.48 103.64 3.48 111.33 8.61"/><polygon class="cls-2" points="111.33 8.61 104.34 13.59 102.67 13.59 109.66 8.61 101.97 3.48 103.64 3.48 111.33 8.61"/><g class="cls-3"><polygon class="cls-5" points="96.17 17.38 95.81 17.3 108.21 8.69 95.81 .08 96.17 0 108.69 8.69 108.63 8.75 96.17 17.38"/></g><g class="cls-3"><polygon class="cls-5" points="15.15 17.38 2.63 8.69 2.69 8.64 15.15 0 15.51 .08 3.11 8.69 15.51 17.3 15.15 17.38"/></g></g></g></g></g></svg>