<?xml version="1.0" encoding="UTF-8"?><svg xmlns="http://www.w3.org/2000/svg" viewBox="0 0 230.59 59.26"><defs><style>.cls-1,.cls-2,.cls-3,.cls-4,.cls-5{fill:#00a79d;}.cls-1,.cls-2,.cls-6,.cls-4,.cls-5{mix-blend-mode:color-dodge;}.cls-7{isolation:isolate;}.cls-2{opacity:.8;}.cls-6{opacity:.2;}.cls-4{opacity:.4;}.cls-5{opacity:.6;}</style></defs><g class="cls-7"><g id="Layer_2"><g id="Layer_1-2"><polygon class="cls-1" points="4.88 29.63 21.99 59.26 17.11 59.26 0 29.63 17.11 0 21.99 0 4.88 29.63"/><polygon class="cls-2" points="11.51 29.63 28.62 59.26 23.74 59.26 6.63 29.63 23.74 0 28.62 0 11.51 29.63"/><polygon class="cls-5" points="18.15 29.63 35.25 59.26 30.37 59.26 13.27 29.63 30.37 0 35.25 0 18.15 29.63"/><polygon class="cls-4" points="24.78 29.63 41.89 59.26 37 59.26 19.9 29.63 37 0 41.89 0 24.78 29.63"/><polygon class="cls-1" points="225.7 29.63 208.6 59.26 213.48 59.26 230.59 29.63 213.48 0 208.6 0 225.7 29.63"/><polygon class="cls-2" points="219.07 29.63 201.97 59.26 206.85 59.26 223.95 29.63 206.85 0 201.97 0 219.07 29.63"/><polygon class="cls-5" points="212.44 29.63 195.33 59.26 200.21 59.26 217.32 29.63 200.21 0 195.33 0 212.44 29.63"/><polygon class="cls-4" points="205.8 29.63 188.7 59.26 193.58 59.26 210.69 29.63 193.58 0 188.7 0 205.8 29.63"/><g class="cls-6"><polygon class="cls-3" points="44.03 59.26 26.92 29.63 44.03 0 186.78 0 203.89 29.63 186.78 59.26 44.03 59.26"/></g></g></g></g></svg>