<?xml version="1.0" encoding="UTF-8"?><svg xmlns="http://www.w3.org/2000/svg" viewBox="0 0 175.4 37.8"><defs><style>.cls-1{isolation:isolate;}.cls-2,.cls-3,.cls-4{mix-blend-mode:color-dodge;}.cls-2,.cls-5{fill:#2b3990;}.cls-6{fill:#00a79d;}.cls-4{opacity:.3;}</style></defs><g class="cls-1"><g id="Layer_2"><g id="Layer_1-2"><g><g class="cls-4"><polygon class="cls-6" points="151.23 .08 24.15 .08 4.52 18.9 24.15 37.72 151.23 37.72 170.86 18.9 151.23 .08"/></g><polygon class="cls-2" points="0 18.73 11.01 29.56 13.64 29.56 2.63 18.73 14.75 7.57 12.11 7.57 0 18.73"/><polygon class="cls-2" points="0 18.73 11.01 29.56 13.64 29.56 2.63 18.73 14.75 7.57 12.11 7.57 0 18.73"/><polygon class="cls-2" points="175.4 18.73 164.39 29.56 161.76 29.56 172.77 18.73 160.65 7.57 163.29 7.57 175.4 18.73"/><polygon class="cls-2" points="175.4 18.73 164.39 29.56 161.76 29.56 172.77 18.73 160.65 7.57 163.29 7.57 175.4 18.73"/><g class="cls-3"><polygon class="cls-5" points="151.52 37.8 150.95 37.63 170.49 18.9 150.95 .17 151.52 0 171.24 18.9 171.15 19.02 151.52 37.8"/></g><g class="cls-3"><polygon class="cls-5" points="23.86 37.8 4.15 18.9 4.23 18.78 23.86 0 24.44 .17 4.89 18.9 24.44 37.63 23.86 37.8"/></g></g></g></g></g></svg>