<?xml version="1.0" encoding="UTF-8"?><svg xmlns="http://www.w3.org/2000/svg" viewBox="0 0 278.63 37.8"><defs><style>.uuid-348ee62b-c069-4f0a-a219-047b93bf580b{isolation:isolate;}.uuid-3fe700cc-5b27-470f-a433-d5131e97ffad,.uuid-f0a53996-9221-4905-9c55-1a168d55db18,.uuid-24ea8ae1-9781-4c22-8590-6d89a7c8706d{mix-blend-mode:color-dodge;}.uuid-3fe700cc-5b27-470f-a433-d5131e97ffad,.uuid-f951fe61-a7e0-4925-a208-cccd19547a5e{fill:#2b3990;}.uuid-dd973642-fd24-4c38-82ee-51c78fa59be7{fill:#00a79d;}.uuid-24ea8ae1-9781-4c22-8590-6d89a7c8706d{opacity:.3;}</style></defs><g class="uuid-348ee62b-c069-4f0a-a219-047b93bf580b"><g id="uuid-e3989130-451e-4abb-8225-516524fb81b3"><g id="uuid-f31eb67a-b56f-4e72-8637-54f232ab3e6c"><g><g class="uuid-24ea8ae1-9781-4c22-8590-6d89a7c8706d"><polygon class="uuid-dd973642-fd24-4c38-82ee-51c78fa59be7" points="240.24 .08 38.36 .08 7.18 18.9 38.36 37.72 240.24 37.72 271.42 18.9 240.24 .08"/></g><polygon class="uuid-3fe700cc-5b27-470f-a433-d5131e97ffad" points="0 18.73 17.49 29.56 21.67 29.56 4.18 18.73 23.42 7.57 19.24 7.57 0 18.73"/><polygon class="uuid-3fe700cc-5b27-470f-a433-d5131e97ffad" points="0 18.73 17.49 29.56 21.67 29.56 4.18 18.73 23.42 7.57 19.24 7.57 0 18.73"/><polygon class="uuid-3fe700cc-5b27-470f-a433-d5131e97ffad" points="278.63 18.73 261.14 29.56 256.96 29.56 274.45 18.73 255.21 7.57 259.39 7.57 278.63 18.73"/><polygon class="uuid-3fe700cc-5b27-470f-a433-d5131e97ffad" points="278.63 18.73 261.14 29.56 256.96 29.56 274.45 18.73 255.21 7.57 259.39 7.57 278.63 18.73"/><g class="uuid-f0a53996-9221-4905-9c55-1a168d55db18"><polygon class="uuid-f951fe61-a7e0-4925-a208-cccd19547a5e" points="240.69 37.8 239.78 37.63 270.83 18.9 239.78 .17 240.69 0 272.02 18.9 271.88 19.02 240.69 37.8"/></g><g class="uuid-f0a53996-9221-4905-9c55-1a168d55db18"><polygon class="uuid-f951fe61-a7e0-4925-a208-cccd19547a5e" points="37.91 37.8 6.59 18.9 6.72 18.78 37.91 0 38.82 .17 7.77 18.9 38.82 37.63 37.91 37.8"/></g></g></g></g></g></svg>