<?xml version="1.0" encoding="UTF-8"?><svg xmlns="http://www.w3.org/2000/svg" viewBox="0 0 207.77 37.8"><defs><style>.uuid-805a7796-4ea3-43c4-acae-a02bb649b647{isolation:isolate;}.uuid-bf09e38a-dc79-49ad-9a40-eb1bdeb452a3,.uuid-216cd4bb-ebdc-4638-9e04-a12e57b67862,.uuid-5d0a7f20-6919-4104-8059-b90427c9128b{mix-blend-mode:color-dodge;}.uuid-bf09e38a-dc79-49ad-9a40-eb1bdeb452a3,.uuid-ea73b5cc-1278-471a-8461-6638da8b78ef{fill:#2b3990;}.uuid-ecb6727e-1ef7-4c60-b6d3-8e4809eb9049{fill:#00a79d;}.uuid-5d0a7f20-6919-4104-8059-b90427c9128b{opacity:.3;}</style></defs><g class="uuid-805a7796-4ea3-43c4-acae-a02bb649b647"><g id="uuid-89d607dd-7cda-4cd8-b954-7f035096df7a"><g id="uuid-6dc83b04-5261-40e8-8de1-c0b5d1aaa348"><g><g class="uuid-5d0a7f20-6919-4104-8059-b90427c9128b"><polygon class="uuid-ecb6727e-1ef7-4c60-b6d3-8e4809eb9049" points="179.14 .08 28.61 .08 5.35 18.9 28.61 37.72 179.14 37.72 202.39 18.9 179.14 .08"/></g><polygon class="uuid-bf09e38a-dc79-49ad-9a40-eb1bdeb452a3" points="0 18.73 13.04 29.56 16.16 29.56 3.12 18.73 17.47 7.57 14.35 7.57 0 18.73"/><polygon class="uuid-bf09e38a-dc79-49ad-9a40-eb1bdeb452a3" points="0 18.73 13.04 29.56 16.16 29.56 3.12 18.73 17.47 7.57 14.35 7.57 0 18.73"/><polygon class="uuid-bf09e38a-dc79-49ad-9a40-eb1bdeb452a3" points="207.77 18.73 194.73 29.56 191.61 29.56 204.65 18.73 190.3 7.57 193.42 7.57 207.77 18.73"/><polygon class="uuid-bf09e38a-dc79-49ad-9a40-eb1bdeb452a3" points="207.77 18.73 194.73 29.56 191.61 29.56 204.65 18.73 190.3 7.57 193.42 7.57 207.77 18.73"/><g class="uuid-216cd4bb-ebdc-4638-9e04-a12e57b67862"><polygon class="uuid-ea73b5cc-1278-471a-8461-6638da8b78ef" points="179.48 37.8 178.8 37.63 201.95 18.9 178.8 .17 179.48 0 202.84 18.9 202.73 19.02 179.48 37.8"/></g><g class="uuid-216cd4bb-ebdc-4638-9e04-a12e57b67862"><polygon class="uuid-ea73b5cc-1278-471a-8461-6638da8b78ef" points="28.27 37.8 4.91 18.9 5.01 18.78 28.27 0 28.94 .17 5.8 18.9 28.94 37.63 28.27 37.8"/></g></g></g></g></g></svg>