<?xml version="1.0" encoding="UTF-8"?><svg xmlns="http://www.w3.org/2000/svg" viewBox="0 0 242.13 37.8"><defs><style>.uuid-d36e0700-c39c-4e64-b553-b0e685612aa2{isolation:isolate;}.uuid-80be4f02-9558-4b36-9d53-724dced8f02c,.uuid-d4891b08-672d-48e1-b5f6-74aa46a37123,.uuid-734b893c-8b1d-4d17-8f23-17610deb8560{mix-blend-mode:color-dodge;}.uuid-80be4f02-9558-4b36-9d53-724dced8f02c,.uuid-be83e4d1-899d-426e-a5ea-f80eb8a8fcb9{fill:#2b3990;}.uuid-a8b236e2-7914-462a-9aba-df01cfc8d5b3{fill:#00a79d;}.uuid-734b893c-8b1d-4d17-8f23-17610deb8560{opacity:.3;}</style></defs><g class="uuid-d36e0700-c39c-4e64-b553-b0e685612aa2"><g id="uuid-a94a18ed-3559-4d91-bcf7-2c02e36fc30a"><g id="uuid-656f9513-50d3-4a6f-9004-3375f68e1a40"><g><g class="uuid-734b893c-8b1d-4d17-8f23-17610deb8560"><polygon class="uuid-a8b236e2-7914-462a-9aba-df01cfc8d5b3" points="208.77 .08 33.34 .08 6.24 18.9 33.34 37.72 208.77 37.72 235.87 18.9 208.77 .08"/></g><polygon class="uuid-80be4f02-9558-4b36-9d53-724dced8f02c" points="0 18.73 15.2 29.56 18.83 29.56 3.63 18.73 20.36 7.57 16.72 7.57 0 18.73"/><polygon class="uuid-80be4f02-9558-4b36-9d53-724dced8f02c" points="0 18.73 15.2 29.56 18.83 29.56 3.63 18.73 20.36 7.57 16.72 7.57 0 18.73"/><polygon class="uuid-80be4f02-9558-4b36-9d53-724dced8f02c" points="242.13 18.73 226.94 29.56 223.3 29.56 238.5 18.73 221.78 7.57 225.41 7.57 242.13 18.73"/><polygon class="uuid-80be4f02-9558-4b36-9d53-724dced8f02c" points="242.13 18.73 226.94 29.56 223.3 29.56 238.5 18.73 221.78 7.57 225.41 7.57 242.13 18.73"/><g class="uuid-d4891b08-672d-48e1-b5f6-74aa46a37123"><polygon class="uuid-be83e4d1-899d-426e-a5ea-f80eb8a8fcb9" points="209.17 37.8 208.38 37.63 235.35 18.9 208.38 .17 209.17 0 236.39 18.9 236.27 19.02 209.17 37.8"/></g><g class="uuid-d4891b08-672d-48e1-b5f6-74aa46a37123"><polygon class="uuid-be83e4d1-899d-426e-a5ea-f80eb8a8fcb9" points="32.94 37.8 5.72 18.9 5.84 18.78 32.94 0 33.73 .17 6.76 18.9 33.73 37.63 32.94 37.8"/></g></g></g></g></g></svg>