<?xml version="1.0" encoding="UTF-8"?><svg xmlns="http://www.w3.org/2000/svg" viewBox="0 0 276.34 37.8"><defs><style>.uuid-7595eb53-195a-4c8a-875e-ed3e72197e62{isolation:isolate;}.uuid-f4a9094f-d018-45af-a973-bca18078e62d,.uuid-8c1565a2-3cef-4264-82de-a5ce3da68fa3,.uuid-140fc2bd-b22e-44f7-8fac-8b949c29f7c3{mix-blend-mode:color-dodge;}.uuid-f4a9094f-d018-45af-a973-bca18078e62d,.uuid-ba886a0e-d89e-4292-8dd6-419d35aa12ec{fill:#2b3990;}.uuid-4cdda859-8875-47e2-9cd7-41870bebd21d{fill:#00a79d;}.uuid-140fc2bd-b22e-44f7-8fac-8b949c29f7c3{opacity:.3;}</style></defs><g class="uuid-7595eb53-195a-4c8a-875e-ed3e72197e62"><g id="uuid-c4c768ff-da67-4aec-ba7b-97fe085f442d"><g id="uuid-4cca79f6-4fc3-4cb8-beb6-c96e1ce689e4"><g><g class="uuid-140fc2bd-b22e-44f7-8fac-8b949c29f7c3"><polygon class="uuid-4cdda859-8875-47e2-9cd7-41870bebd21d" points="238.27 .08 38.05 .08 7.12 18.9 38.05 37.72 238.27 37.72 269.19 18.9 238.27 .08"/></g><polygon class="uuid-f4a9094f-d018-45af-a973-bca18078e62d" points="0 18.73 17.34 29.56 21.49 29.56 4.15 18.73 23.23 7.57 19.08 7.57 0 18.73"/><polygon class="uuid-f4a9094f-d018-45af-a973-bca18078e62d" points="0 18.73 17.34 29.56 21.49 29.56 4.15 18.73 23.23 7.57 19.08 7.57 0 18.73"/><polygon class="uuid-f4a9094f-d018-45af-a973-bca18078e62d" points="276.34 18.73 259 29.56 254.85 29.56 272.19 18.73 253.11 7.57 257.26 7.57 276.34 18.73"/><polygon class="uuid-f4a9094f-d018-45af-a973-bca18078e62d" points="276.34 18.73 259 29.56 254.85 29.56 272.19 18.73 253.11 7.57 257.26 7.57 276.34 18.73"/><g class="uuid-8c1565a2-3cef-4264-82de-a5ce3da68fa3"><polygon class="uuid-ba886a0e-d89e-4292-8dd6-419d35aa12ec" points="238.72 37.8 237.82 37.63 268.6 18.9 237.82 .17 238.72 0 269.78 18.9 269.65 19.02 238.72 37.8"/></g><g class="uuid-8c1565a2-3cef-4264-82de-a5ce3da68fa3"><polygon class="uuid-ba886a0e-d89e-4292-8dd6-419d35aa12ec" points="37.6 37.8 6.53 18.9 6.67 18.78 37.6 0 38.5 .17 7.71 18.9 38.5 37.63 37.6 37.8"/></g></g></g></g></g></svg>