<?xml version="1.0" encoding="UTF-8"?><svg xmlns="http://www.w3.org/2000/svg" viewBox="0 0 214.35 50.11"><defs><style>.uuid-9168a0a8-cd87-461c-971f-70ca6e7163ea{isolation:isolate;}.uuid-36736311-9166-4123-8585-b9fcd54dbdce,.uuid-aecda84e-c08f-4273-a419-1d6c5956fbc2,.uuid-4d8d9a76-2861-4306-8093-eaa30519b597{mix-blend-mode:color-dodge;}.uuid-36736311-9166-4123-8585-b9fcd54dbdce,.uuid-e269a1b0-84a2-42b7-b306-c8d87a4619fa{fill:#2b3990;}.uuid-fb0d9f86-5a09-40ba-b8c5-b55485c4dd28{fill:#00a79d;}.uuid-4d8d9a76-2861-4306-8093-eaa30519b597{opacity:.3;}</style></defs><g class="uuid-9168a0a8-cd87-461c-971f-70ca6e7163ea"><g id="uuid-a52a81aa-fc1d-4b85-aa6d-86b7be30dfa1"><g id="uuid-521376cf-3240-4e28-833c-ac96fb358a20"><g><g class="uuid-4d8d9a76-2861-4306-8093-eaa30519b597"><polygon class="uuid-fb0d9f86-5a09-40ba-b8c5-b55485c4dd28" points="184.81 .11 29.51 .11 5.52 25.05 29.51 50 184.81 50 208.8 25.05 184.81 .11"/></g><polygon class="uuid-36736311-9166-4123-8585-b9fcd54dbdce" points="0 24.83 13.45 39.18 16.67 39.18 3.22 24.83 18.02 10.04 14.8 10.04 0 24.83"/><polygon class="uuid-36736311-9166-4123-8585-b9fcd54dbdce" points="0 24.83 13.45 39.18 16.67 39.18 3.22 24.83 18.02 10.04 14.8 10.04 0 24.83"/><polygon class="uuid-36736311-9166-4123-8585-b9fcd54dbdce" points="214.35 24.83 200.89 39.18 197.68 39.18 211.13 24.83 196.33 10.04 199.54 10.04 214.35 24.83"/><polygon class="uuid-36736311-9166-4123-8585-b9fcd54dbdce" points="214.35 24.83 200.89 39.18 197.68 39.18 211.13 24.83 196.33 10.04 199.54 10.04 214.35 24.83"/><g class="uuid-aecda84e-c08f-4273-a419-1d6c5956fbc2"><polygon class="uuid-e269a1b0-84a2-42b7-b306-c8d87a4619fa" points="185.16 50.11 184.46 49.88 208.35 25.05 184.46 .22 185.16 0 209.26 25.05 209.15 25.21 185.16 50.11"/></g><g class="uuid-aecda84e-c08f-4273-a419-1d6c5956fbc2"><polygon class="uuid-e269a1b0-84a2-42b7-b306-c8d87a4619fa" points="29.16 50.11 5.07 25.05 5.17 24.89 29.16 0 29.86 .22 5.98 25.05 29.86 49.88 29.16 50.11"/></g></g></g></g></g></svg>