<?xml version="1.0" encoding="UTF-8"?><svg id="Layer_2" xmlns="http://www.w3.org/2000/svg" viewBox="0 0 368.97 359.73"><defs><style>.cls-1,.cls-2{fill:#00a79d;}.cls-2{opacity:.5;}</style></defs><g id="Layer_1-2"><g><polygon class="cls-1" points="144.92 13.53 223.9 13.53 232.62 23.62 136.19 23.62 144.92 13.53"/><polygon class="cls-1" points="224.98 345.27 144.01 345.27 135.84 335.71 233.08 335.71 224.98 345.27"/><polygon class="cls-2" points="343.53 170.04 343.53 191.74 355.18 180.89 343.53 170.04"/><polygon class="cls-1" points="286.07 42.19 286.07 37.83 241.59 37.83 246.25 42.19 286.07 42.19"/><path class="cls-1" d="M265.42,13.08c1.41,0,2.56,1.39,2.78,3.2h27.68V0l50.47,67.85h20.3v27.98c1.32,.31,2.33,1.86,2.33,3.73,0,2.09-1.27,3.79-2.82,3.79s-2.82-1.7-2.82-3.79c0-1.87,1.01-3.41,2.33-3.73v-26.65h-19.71L296.87,3.21v14.41h-28.68c-.26,1.74-1.4,3.05-2.77,3.05-1.56,0-2.82-1.7-2.82-3.79s1.26-3.79,2.82-3.79Z"/><path class="cls-1" d="M265.42,346.65c1.41,0,2.56-1.39,2.78-3.21h27.68v16.29l50.47-67.85h20.3v-27.98c1.32-.31,2.33-1.86,2.33-3.73,0-2.09-1.27-3.79-2.82-3.79s-2.82,1.7-2.82,3.79c0,1.87,1.01,3.41,2.33,3.73v26.65h-19.71l-49.07,65.97v-14.41h-28.68c-.26-1.74-1.4-3.05-2.77-3.05-1.56,0-2.82,1.7-2.82,3.79s1.26,3.79,2.82,3.79Z"/><polygon class="cls-1" points="286.07 317.27 286.07 321.63 241.59 321.63 246.25 317.27 286.07 317.27"/><polygon class="cls-2" points="25.44 170.04 25.44 191.74 13.78 180.89 25.44 170.04"/><polygon class="cls-1" points="82.9 42.19 82.9 37.83 127.38 37.83 122.71 42.19 82.9 42.19"/><path class="cls-1" d="M103.55,13.08c-1.41,0-2.57,1.39-2.78,3.2h-27.68V0L22.62,67.85H2.33v27.98c-1.32,.31-2.33,1.86-2.33,3.73,0,2.09,1.26,3.79,2.82,3.79s2.82-1.7,2.82-3.79c0-1.87-1-3.41-2.32-3.73v-26.65H23.03L72.1,3.21v14.41h28.69c.26,1.74,1.4,3.05,2.76,3.05,1.56,0,2.82-1.7,2.82-3.79s-1.26-3.79-2.82-3.79Z"/><path class="cls-1" d="M103.55,346.65c-1.41,0-2.57-1.39-2.78-3.21h-27.68v16.29l-50.47-67.85H2.33v-27.98c-1.32-.31-2.33-1.86-2.33-3.73,0-2.09,1.26-3.79,2.82-3.79s2.82,1.7,2.82,3.79c0,1.87-1,3.41-2.32,3.73v26.65H23.03l49.06,65.97v-14.41h28.69c.26-1.74,1.4-3.05,2.76-3.05,1.56,0,2.82,1.7,2.82,3.79s-1.26,3.79-2.82,3.79Z"/><polygon class="cls-1" points="82.9 317.27 82.9 321.63 127.38 321.63 122.71 317.27 82.9 317.27"/><polygon class="cls-1" points="360.84 315.21 360.8 220.27 339.47 191.6 339.47 176.56 337.61 176.56 337.61 192.63 358.93 221.31 358.89 317.87 342.25 340.49 308.55 340.49 303.55 336.33 286 336.33 286 327.22 239.61 327.22 223.29 344.96 185.55 344.96 182.88 344.96 145.14 344.96 128.81 327.22 82.42 327.22 82.42 336.33 64.87 336.33 59.87 340.49 26.18 340.49 9.54 317.87 9.49 221.31 30.82 192.63 30.82 176.56 28.96 176.56 28.96 191.6 7.63 220.27 7.59 315.21 7.58 315.21 7.58 318.15 9.54 320.77 24.2 340.49 28 345.59 28.89 346.79 29.98 348.25 54.3 348.25 65.33 338.83 84.28 338.83 84.28 329.72 128.01 329.72 144.33 347.47 182.88 347.47 185.55 347.47 224.09 347.47 240.41 329.72 284.14 329.72 284.14 338.83 303.1 338.83 314.12 348.25 338.45 348.25 339.53 346.79 340.43 345.59 344.22 340.49 358.89 320.77 360.84 318.15 360.84 315.21 360.84 315.21"/><polygon class="cls-1" points="7.59 44.67 7.63 139.62 28.96 168.29 28.96 183.34 30.82 183.34 30.82 167.26 9.49 138.58 9.54 42.02 26.18 19.41 59.87 19.41 64.87 23.56 82.42 23.56 82.42 32.68 128.81 32.68 145.14 14.93 182.88 14.93 185.55 14.93 223.29 14.93 239.61 32.68 286 32.68 286 23.56 303.55 23.56 308.55 19.41 342.25 19.41 358.89 42.02 358.93 138.58 337.61 167.26 337.61 183.34 339.47 183.34 339.47 168.29 360.8 139.62 360.84 44.67 360.84 44.67 360.84 41.75 358.89 39.12 344.22 19.41 340.43 14.3 339.53 13.1 338.45 11.64 314.12 11.64 303.1 21.06 284.14 21.06 284.14 30.17 240.41 30.17 224.09 12.42 185.55 12.42 182.88 12.42 144.33 12.42 128.01 30.17 84.28 30.17 84.28 21.06 65.33 21.06 54.3 11.64 29.98 11.64 28.89 13.1 28 14.3 24.2 19.41 9.54 39.12 7.58 41.75 7.58 44.67 7.59 44.67"/></g></g></svg>