<?xml version="1.0" encoding="UTF-8"?>
<svg id="uuid-4f2052e8-fbc9-40ae-8231-efa876810d8e" xmlns="http://www.w3.org/2000/svg" viewBox="0 0 279.95 434.79">
<defs>

</defs>
<g id="uuid-a1eb92bc-a70f-4b87-9cb3-bf848c1b7e8d"><g>
<g class="uuid-994160f9-713c-4ce8-a065-fcae746aaa59">
<polygon class="uuid-eb83f020-38f0-45e7-998c-f44975559d57" points="21.91 373.43 57.84 409.37 144.43 409.37 253.67 300.13 253.67 212.57 263.71 202.53 263.71 147.6 250.56 134.45 250.56 50.81 223.13 23.37 207.93 23.37 198.15 13.6 147.41 13.6 127.68 33.34 49.91 33.34 23.84 59.4 23.84 82.81 32.94 91.91 32.94 165.09 22.85 175.19 22.85 267.91 7.58 283.17 7.58 313.33 21.91 327.65 21.91 373.43"/></g>
<g class="uuid-994160f9-713c-4ce8-a065-fcae746aaa59"><polygon class="uuid-eb83f020-38f0-45e7-998c-f44975559d57" points="255.23 349.23 262.91 341.55 262.91 324.29 262.31 323.7 168.3 417.71 170.97 420.38 227.38 420.38 255.23 392.53 255.23 349.23"/></g><path class="uuid-eb83f020-38f0-45e7-998c-f44975559d57" d="M13.8,392.67l-7.13-7.13v-62.41l7.65,7.65v45.78l40.38,40.38h92.87l113.68-113.68v-87.56l4.94-4.94v63.12h.72v-63.85l4.38-4.38v-61.21l-3.47-3.47v-26.13h-.72v25.41l-3.61-3.61V42.75l-2.6-2.6,1.95-1.95V18.8l-8.71-8.71h-16.7l-3.25,3.25-4.4-4.4h-14.4L206.45,0h-41.82V.72h41.52l8.94,8.94h14.4l4.18,4.18-1.02,1.02,26.76,26.76,.96-.96,2.38,2.38v92.88l-4.62-4.62V47.67l-31.88-31.88h-15.2l-9.78-9.78h-57.02l-10.15,10.15h-8.44l4.46-4.46H64.13l-4.31,4.31v-.11h-18.84l-9.56,9.56h-9.45l-5.82,5.82v20.28l26.1-26.1h-9.81l8.84-8.84h17.92l-4.72,4.71H120.5l4.46-4.46h8.44l-8.87,8.87H46.77l-30.51,30.51v29.69l.68,.68v10.11l-5.01-5.01-.26,73.61,5.27-5.27v10.3l-1.67,1.67v92.72l-7.31,7.31v-73.45h-.72v74.17l-7.24,7.24v36.44l5.95,5.95v63.43l7.85,7.85v5.4l19.07,19.07,15.22,.18-34.29-34.29v8.61ZM233.68,14.87l4.06-4.06h16.1l8.28,8.28v18.82l-2.7,2.7-25.74-25.74ZM16.88,49.83V31.58l5.4-5.4h18.24l-23.64,23.64ZM120.2,20.62H56.23l8.2-8.2h63.97l-8.2,8.2ZM12.65,93.47l6.42,6.42v57.05l-6.67,6.67,.25-70.13Zm5.02,65.89l2.12-2.12v-57.64l-2.46-2.46h.34v-9.77l7.7,7.7v66.9l-7.7,7.7v-10.3ZM.72,280.33l15.27-15.27v-92.72l10.09-10.09V94.75l-9.1-9.1v-29.1l30.08-30.08H124.83l19.74-19.74h56.42l9.78,9.78h15.2l31.45,31.45v83.64l13.15,13.15v60.61l-10.04,10.04v87.56l-113.26,113.26H55l-39.96-39.96v-45.78l-14.32-14.32v-35.84Zm13.8,105.47l31.8,31.8-13.15-.16-18.65-18.65v-13Z"/><g class="uuid-994160f9-713c-4ce8-a065-fcae746aaa59"><polygon class="uuid-eb83f020-38f0-45e7-998c-f44975559d57" points="239.08 14.06 238.28 14.87 258.87 35.46 258.87 20.44 252.49 14.06 239.08 14.06"/></g><path class="uuid-eb83f020-38f0-45e7-998c-f44975559d57" d="M61.2,428.87h80.58l6.45-6.45-93.88-.39,6.84,6.84Zm80.28-.72H61.5l-5.39-5.39,90.39,.38-5.02,5.02Z"/><polygon class="uuid-eb83f020-38f0-45e7-998c-f44975559d57" points="30.43 163.54 30.43 93.47 20.26 83.31 20.26 62.91 19.54 62.91 19.54 83.61 29.7 93.77 29.7 163.24 19.17 173.77 19.68 174.29 30.43 163.54"/><polygon class="uuid-eb83f020-38f0-45e7-998c-f44975559d57" points="146.09 10.79 198.57 10.79 208.3 20.52 224.57 20.52 252.68 48.63 252.68 80.49 253.4 80.49 253.4 48.33 224.87 19.8 208.6 19.8 198.87 10.07 145.79 10.07 126.32 29.54 97.03 29.54 97.03 30.27 126.62 30.27 146.09 10.79"/><polygon class="uuid-eb83f020-38f0-45e7-998c-f44975559d57" points="256.28 252.27 257 252.27 257 214.26 267.39 203.87 267.39 178.64 266.66 178.64 266.66 203.57 256.28 213.96 256.28 252.27"/><polygon class="uuid-eb83f020-38f0-45e7-998c-f44975559d57" points="145.88 412.16 93.34 412.16 93.34 412.88 146.18 412.88 197.83 361.23 197.32 360.72 145.88 412.16"/><polygon class="uuid-eb83f020-38f0-45e7-998c-f44975559d57" points="18.58 375.14 28.23 384.79 28.74 384.28 19.31 374.84 19.31 329.19 10.44 320.32 9.93 320.83 18.58 329.49 18.58 375.14"/><path class="uuid-eb83f020-38f0-45e7-998c-f44975559d57" d="M279.23,331.15v19.04l-8.08,8.08v37.75l-38.05,38.05h-18.74l-6.11-6.11h22.26l32.29-32.29v-43.3l7.68-7.68v-23.55l-8.18-8.18-104.74,104.74,10.25,10.25h39.41l6.83,6.83h19.34l38.47-38.47v-37.75l8.08-8.08v-19.34h-.72Zm-120.63,86.55l103.71-103.71,7.45,7.45v22.95l-7.68,7.68v43.3l-31.87,31.87h-62.09l-9.53-9.53Z"/><g class="uuid-994160f9-713c-4ce8-a065-fcae746aaa59"><polygon class="uuid-eb83f020-38f0-45e7-998c-f44975559d57" points="20.13 41.98 32.67 29.44 23.62 29.44 20.13 32.93 20.13 41.98"/></g></g></g></svg>