<?xml version="1.0" encoding="UTF-8"?><svg xmlns="http://www.w3.org/2000/svg" viewBox="0 0 366.92 59.14"><defs><style>.uuid-67561ee5-df7a-4292-bafd-9b04a24df287,.uuid-5f7e2535-b8d7-432b-9825-6e91a6a075bf{fill:#00a79d;}.uuid-67561ee5-df7a-4292-bafd-9b04a24df287,.uuid-31e51477-c768-4fd6-bd9f-04a828fbf499,.uuid-de53691c-983e-4ebd-a423-3f0c59ecb72c{mix-blend-mode:color-dodge;}.uuid-7b227ddf-0434-4f5a-822f-689568306980{isolation:isolate;}.uuid-de53691c-983e-4ebd-a423-3f0c59ecb72c{opacity:.3;}</style></defs><g class="uuid-7b227ddf-0434-4f5a-822f-689568306980"><g id="uuid-c89afd82-add9-412e-ba1c-dc7a89df0b32"><g id="uuid-ca0b215a-0942-4937-b9ce-13abf9c22a54"><g><g class="uuid-de53691c-983e-4ebd-a423-3f0c59ecb72c"><polygon class="uuid-5f7e2535-b8d7-432b-9825-6e91a6a075bf" points="327.31 .13 39.58 .13 7.41 29.57 39.58 59.01 327.31 59.01 359.48 29.57 327.31 .13"/></g><polygon class="uuid-67561ee5-df7a-4292-bafd-9b04a24df287" points="0 29.3 18.04 46.25 22.35 46.25 4.31 29.3 24.17 11.85 19.85 11.85 0 29.3"/><polygon class="uuid-67561ee5-df7a-4292-bafd-9b04a24df287" points="0 29.3 18.04 46.25 22.35 46.25 4.31 29.3 24.17 11.85 19.85 11.85 0 29.3"/><polygon class="uuid-67561ee5-df7a-4292-bafd-9b04a24df287" points="366.92 29.3 348.88 46.25 344.56 46.25 362.6 29.3 342.75 11.85 347.06 11.85 366.92 29.3"/><polygon class="uuid-67561ee5-df7a-4292-bafd-9b04a24df287" points="366.92 29.3 348.88 46.25 344.56 46.25 362.6 29.3 342.75 11.85 347.06 11.85 366.92 29.3"/><g class="uuid-31e51477-c768-4fd6-bd9f-04a828fbf499"><polygon class="uuid-5f7e2535-b8d7-432b-9825-6e91a6a075bf" points="327.78 59.14 326.84 58.88 358.87 29.57 326.84 .27 327.78 0 360.09 29.57 359.95 29.76 327.78 59.14"/></g><g class="uuid-31e51477-c768-4fd6-bd9f-04a828fbf499"><polygon class="uuid-5f7e2535-b8d7-432b-9825-6e91a6a075bf" points="39.11 59.14 6.79 29.57 6.94 29.38 39.11 0 40.05 .27 8.02 29.57 40.05 58.88 39.11 59.14"/></g></g></g></g></g></svg>