<?xml version="1.0" encoding="UTF-8"?><svg xmlns="http://www.w3.org/2000/svg" viewBox="0 0 366.92 59.14"><defs><style>.uuid-0d16deae-a335-4dc0-b100-4d71848ff6b8,.uuid-afb6c344-9758-4d55-813f-bbbaea70011b{fill:#00a79d;}.uuid-0d16deae-a335-4dc0-b100-4d71848ff6b8,.uuid-ba469434-b02f-4474-bd91-ede235a6afa0,.uuid-c2aac57a-594f-4112-84b0-d1a54bcb7c48{mix-blend-mode:color-dodge;}.uuid-75002adb-a8ee-4d33-bf9c-8748fd479af6{isolation:isolate;}.uuid-c2aac57a-594f-4112-84b0-d1a54bcb7c48{opacity:.3;}</style></defs><g class="uuid-75002adb-a8ee-4d33-bf9c-8748fd479af6"><g id="uuid-e176ebfe-c340-4025-b5a3-7b246796c2d7"><g id="uuid-cf9ef942-e470-4c2c-a893-6c8753737c7d"><g><g class="uuid-c2aac57a-594f-4112-84b0-d1a54bcb7c48"><polygon class="uuid-afb6c344-9758-4d55-813f-bbbaea70011b" points="327.31 .13 39.58 .13 7.41 29.57 39.58 59.01 327.31 59.01 359.48 29.57 327.31 .13"/></g><polygon class="uuid-0d16deae-a335-4dc0-b100-4d71848ff6b8" points="0 29.3 18.04 46.25 22.35 46.25 4.31 29.3 24.17 11.85 19.85 11.85 0 29.3"/><polygon class="uuid-0d16deae-a335-4dc0-b100-4d71848ff6b8" points="0 29.3 18.04 46.25 22.35 46.25 4.31 29.3 24.17 11.85 19.85 11.85 0 29.3"/><polygon class="uuid-0d16deae-a335-4dc0-b100-4d71848ff6b8" points="366.92 29.3 348.88 46.25 344.56 46.25 362.6 29.3 342.75 11.85 347.06 11.85 366.92 29.3"/><polygon class="uuid-0d16deae-a335-4dc0-b100-4d71848ff6b8" points="366.92 29.3 348.88 46.25 344.56 46.25 362.6 29.3 342.75 11.85 347.06 11.85 366.92 29.3"/><g class="uuid-ba469434-b02f-4474-bd91-ede235a6afa0"><polygon class="uuid-afb6c344-9758-4d55-813f-bbbaea70011b" points="327.78 59.14 326.84 58.88 358.87 29.57 326.84 .27 327.78 0 360.09 29.57 359.95 29.76 327.78 59.14"/></g><g class="uuid-ba469434-b02f-4474-bd91-ede235a6afa0"><polygon class="uuid-afb6c344-9758-4d55-813f-bbbaea70011b" points="39.11 59.14 6.79 29.57 6.94 29.38 39.11 0 40.05 .27 8.02 29.57 40.05 58.88 39.11 59.14"/></g></g></g></g></g></svg>