<?xml version="1.0" encoding="UTF-8"?><svg xmlns="http://www.w3.org/2000/svg" viewBox="0 0 494.56 90.4"><defs><style>.uuid-629fcbd0-8f9f-4b3e-be79-1a9f03ccf5ad,.uuid-8c9a8a68-94c6-416a-9a78-3604e25eaea8,.uuid-2eb5d77a-2096-4f26-a71d-c18e83489fb3,.uuid-fa7baf45-ad8f-41ce-909d-06d4f476bab9,.uuid-ca45a42c-8b4f-47c1-a785-f35cc2aaaaaa,.uuid-35de824a-d380-47e9-9153-aa5bb6f3c307{fill:#00a79d;}.uuid-629fcbd0-8f9f-4b3e-be79-1a9f03ccf5ad,.uuid-8c9a8a68-94c6-416a-9a78-3604e25eaea8,.uuid-2eb5d77a-2096-4f26-a71d-c18e83489fb3,.uuid-72b5138f-7011-408d-9689-a8c1b249f262,.uuid-ca45a42c-8b4f-47c1-a785-f35cc2aaaaaa,.uuid-35de824a-d380-47e9-9153-aa5bb6f3c307{mix-blend-mode:color-dodge;}.uuid-277420be-fcac-497d-b0d0-08c65ce346d5{isolation:isolate;}.uuid-8c9a8a68-94c6-416a-9a78-3604e25eaea8{opacity:.3;}.uuid-2eb5d77a-2096-4f26-a71d-c18e83489fb3{opacity:.8;}.uuid-72b5138f-7011-408d-9689-a8c1b249f262{opacity:.2;}.uuid-ca45a42c-8b4f-47c1-a785-f35cc2aaaaaa{opacity:.4;}.uuid-35de824a-d380-47e9-9153-aa5bb6f3c307{opacity:.6;}</style></defs><g class="uuid-277420be-fcac-497d-b0d0-08c65ce346d5"><g id="uuid-9fe2d3c5-109c-4ed0-b7fa-1508adcdf1c0"><g id="uuid-b2c790bd-6c1a-4d62-85d4-05a09901fa75"><g><polygon class="uuid-8c9a8a68-94c6-416a-9a78-3604e25eaea8" points="439.44 69.46 364.2 69.46 355.58 72.64 247.28 72.64 247.28 90.4 439.44 90.4 439.44 69.46"/><polygon class="uuid-8c9a8a68-94c6-416a-9a78-3604e25eaea8" points="54.23 69.46 129.82 69.46 138.48 72.64 247.28 72.64 247.28 90.4 54.23 90.4 54.23 69.46"/><polygon class="uuid-629fcbd0-8f9f-4b3e-be79-1a9f03ccf5ad" points="136.87 29.63 153.97 59.26 149.09 59.26 131.98 29.63 149.09 0 153.97 0 136.87 29.63"/><polygon class="uuid-2eb5d77a-2096-4f26-a71d-c18e83489fb3" points="143.5 29.63 160.6 59.26 155.72 59.26 138.62 29.63 155.72 0 160.6 0 143.5 29.63"/><polygon class="uuid-35de824a-d380-47e9-9153-aa5bb6f3c307" points="150.13 29.63 167.24 59.26 162.36 59.26 145.25 29.63 162.36 0 167.24 0 150.13 29.63"/><polygon class="uuid-ca45a42c-8b4f-47c1-a785-f35cc2aaaaaa" points="156.77 29.63 173.87 59.26 168.99 59.26 151.88 29.63 168.99 0 173.87 0 156.77 29.63"/><polygon class="uuid-629fcbd0-8f9f-4b3e-be79-1a9f03ccf5ad" points="357.69 29.63 340.58 59.26 345.47 59.26 362.57 29.63 345.47 0 340.58 0 357.69 29.63"/><polygon class="uuid-2eb5d77a-2096-4f26-a71d-c18e83489fb3" points="351.06 29.63 333.95 59.26 338.83 59.26 355.94 29.63 338.83 0 333.95 0 351.06 29.63"/><polygon class="uuid-35de824a-d380-47e9-9153-aa5bb6f3c307" points="344.42 29.63 327.32 59.26 332.2 59.26 349.3 29.63 332.2 0 327.32 0 344.42 29.63"/><polygon class="uuid-ca45a42c-8b4f-47c1-a785-f35cc2aaaaaa" points="337.79 29.63 320.68 59.26 325.57 59.26 342.67 29.63 325.57 0 320.68 0 337.79 29.63"/><g class="uuid-72b5138f-7011-408d-9689-a8c1b249f262"><polygon class="uuid-fa7baf45-ad8f-41ce-909d-06d4f476bab9" points="176.02 59.26 158.91 29.63 176.02 0 318.77 0 335.87 29.63 318.76 59.26 176.02 59.26"/></g></g><g><rect class="uuid-629fcbd0-8f9f-4b3e-be79-1a9f03ccf5ad" x="485.38" y="69.46" width="9.18" height="20.94"/><rect class="uuid-2eb5d77a-2096-4f26-a71d-c18e83489fb3" x="472.26" y="69.46" width="9.18" height="20.94"/><rect class="uuid-35de824a-d380-47e9-9153-aa5bb6f3c307" x="459.15" y="69.46" width="9.18" height="20.94"/><rect class="uuid-ca45a42c-8b4f-47c1-a785-f35cc2aaaaaa" x="446.04" y="69.46" width="9.18" height="20.94"/><rect class="uuid-ca45a42c-8b4f-47c1-a785-f35cc2aaaaaa" x="39.34" y="69.46" width="9.18" height="20.94"/><rect class="uuid-35de824a-d380-47e9-9153-aa5bb6f3c307" x="26.23" y="69.46" width="9.18" height="20.94"/><rect class="uuid-2eb5d77a-2096-4f26-a71d-c18e83489fb3" x="13.11" y="69.46" width="9.18" height="20.94"/><rect class="uuid-629fcbd0-8f9f-4b3e-be79-1a9f03ccf5ad" y="69.46" width="9.18" height="20.94"/></g></g></g></g></svg>