<?xml version="1.0" encoding="UTF-8"?><svg xmlns="http://www.w3.org/2000/svg" viewBox="0 0 186 37.8"><defs><style>.uuid-8465f99b-35db-497a-be53-9bf57b5a365b{isolation:isolate;}.uuid-0092dcc9-5539-40fe-880e-7f8513779553,.uuid-16e5b681-07ac-4329-8d4a-416c40ae5d47,.uuid-7ca2a28e-a8f1-4867-ba6b-7c47aa3217e0{mix-blend-mode:color-dodge;}.uuid-0092dcc9-5539-40fe-880e-7f8513779553,.uuid-3b290122-ed06-4629-bb2e-0c7fc6a68779{fill:#2b3990;}.uuid-0f47672c-5256-4fbd-b497-e6424604cc4c{fill:#00a79d;}.uuid-7ca2a28e-a8f1-4867-ba6b-7c47aa3217e0{opacity:.3;}</style></defs><g class="uuid-8465f99b-35db-497a-be53-9bf57b5a365b"><g id="uuid-1484206c-85aa-4a4d-ba9e-cdf3896547c6"><g id="uuid-29195ba9-6a12-4ec7-afa7-aa435a36882e"><g><g class="uuid-7ca2a28e-a8f1-4867-ba6b-7c47aa3217e0"><polygon class="uuid-0f47672c-5256-4fbd-b497-e6424604cc4c" points="160.37 .08 25.61 .08 4.79 18.9 25.61 37.72 160.37 37.72 181.19 18.9 160.37 .08"/></g><polygon class="uuid-0092dcc9-5539-40fe-880e-7f8513779553" points="0 18.73 11.67 29.56 14.46 29.56 2.79 18.73 15.64 7.57 12.84 7.57 0 18.73"/><polygon class="uuid-0092dcc9-5539-40fe-880e-7f8513779553" points="0 18.73 11.67 29.56 14.46 29.56 2.79 18.73 15.64 7.57 12.84 7.57 0 18.73"/><polygon class="uuid-0092dcc9-5539-40fe-880e-7f8513779553" points="186 18.73 174.32 29.56 171.53 29.56 183.21 18.73 170.36 7.57 173.15 7.57 186 18.73"/><polygon class="uuid-0092dcc9-5539-40fe-880e-7f8513779553" points="186 18.73 174.32 29.56 171.53 29.56 183.21 18.73 170.36 7.57 173.15 7.57 186 18.73"/><g class="uuid-16e5b681-07ac-4329-8d4a-416c40ae5d47"><polygon class="uuid-3b290122-ed06-4629-bb2e-0c7fc6a68779" points="160.67 37.8 160.07 37.63 180.79 18.9 160.07 .17 160.67 0 181.58 18.9 181.49 19.02 160.67 37.8"/></g><g class="uuid-16e5b681-07ac-4329-8d4a-416c40ae5d47"><polygon class="uuid-3b290122-ed06-4629-bb2e-0c7fc6a68779" points="25.31 37.8 4.4 18.9 4.49 18.78 25.31 0 25.91 .17 5.19 18.9 25.91 37.63 25.31 37.8"/></g></g></g></g></g></svg>