<?xml version="1.0" encoding="UTF-8"?><svg xmlns="http://www.w3.org/2000/svg" viewBox="0 0 200.24 37.8"><defs><style>.uuid-95d5ad0b-4318-499a-b1fb-fee0ddd37540{isolation:isolate;}.uuid-b31c4b4c-3fe2-4a4e-ae6e-d349862ed3b1,.uuid-d52e8eb7-2938-40f3-aa52-e899676b04a9,.uuid-ab193934-4ca7-4744-a12e-b1cb9253c204{mix-blend-mode:color-dodge;}.uuid-b31c4b4c-3fe2-4a4e-ae6e-d349862ed3b1,.uuid-e35e11c0-e9fa-4dfb-9339-af29ff8be58b{fill:#2b3990;}.uuid-772873d6-9ae3-4275-a8cf-2183d349f0e9{fill:#00a79d;}.uuid-ab193934-4ca7-4744-a12e-b1cb9253c204{opacity:.3;}</style></defs><g class="uuid-95d5ad0b-4318-499a-b1fb-fee0ddd37540"><g id="uuid-64ab3e50-0bf8-4f36-afb1-fe5e7151cb41"><g id="uuid-c8b47054-8445-4ce3-b591-ff3c1c93faf2"><g><g class="uuid-ab193934-4ca7-4744-a12e-b1cb9253c204"><polygon class="uuid-772873d6-9ae3-4275-a8cf-2183d349f0e9" points="172.65 .08 27.57 .08 5.16 18.9 27.57 37.72 172.65 37.72 195.06 18.9 172.65 .08"/></g><polygon class="uuid-b31c4b4c-3fe2-4a4e-ae6e-d349862ed3b1" points="0 18.73 12.57 29.56 15.57 29.56 3 18.73 16.83 7.57 13.83 7.57 0 18.73"/><polygon class="uuid-b31c4b4c-3fe2-4a4e-ae6e-d349862ed3b1" points="0 18.73 12.57 29.56 15.57 29.56 3 18.73 16.83 7.57 13.83 7.57 0 18.73"/><polygon class="uuid-b31c4b4c-3fe2-4a4e-ae6e-d349862ed3b1" points="200.24 18.73 187.67 29.56 184.67 29.56 197.23 18.73 183.41 7.57 186.41 7.57 200.24 18.73"/><polygon class="uuid-b31c4b4c-3fe2-4a4e-ae6e-d349862ed3b1" points="200.24 18.73 187.67 29.56 184.67 29.56 197.23 18.73 183.41 7.57 186.41 7.57 200.24 18.73"/><g class="uuid-d52e8eb7-2938-40f3-aa52-e899676b04a9"><polygon class="uuid-e35e11c0-e9fa-4dfb-9339-af29ff8be58b" points="172.98 37.8 172.32 37.63 194.63 18.9 172.32 .17 172.98 0 195.49 18.9 195.39 19.02 172.98 37.8"/></g><g class="uuid-d52e8eb7-2938-40f3-aa52-e899676b04a9"><polygon class="uuid-e35e11c0-e9fa-4dfb-9339-af29ff8be58b" points="27.24 37.8 4.73 18.9 4.83 18.78 27.24 0 27.9 .17 5.59 18.9 27.9 37.63 27.24 37.8"/></g></g></g></g></g></svg>