<?xml version="1.0" encoding="UTF-8"?><svg xmlns="http://www.w3.org/2000/svg" viewBox="0 0 175.4 37.8"><defs><style>.uuid-9f142017-d02b-404c-8641-c6526f1202a1{isolation:isolate;}.uuid-af07632c-3ae6-413e-8a06-fb8c8f918b7e,.uuid-94d7af70-24b9-47c5-bb48-f87db7be7600,.uuid-5e9d7efb-4fa1-4fd4-8cd5-ebd0910a12e6{mix-blend-mode:color-dodge;}.uuid-af07632c-3ae6-413e-8a06-fb8c8f918b7e,.uuid-84f25980-5093-45c5-af36-b330c5cc6759{fill:#2b3990;}.uuid-a3d7d9f9-4a14-43ba-9897-2cc144b8e5ce{fill:#00a79d;}.uuid-5e9d7efb-4fa1-4fd4-8cd5-ebd0910a12e6{opacity:.3;}</style></defs><g class="uuid-9f142017-d02b-404c-8641-c6526f1202a1"><g id="uuid-af179072-df6e-4a79-babf-b9fa7f167221"><g id="uuid-e88eca03-b3c8-4b19-a734-a8fb06caf5cd"><g><g class="uuid-5e9d7efb-4fa1-4fd4-8cd5-ebd0910a12e6"><polygon class="uuid-a3d7d9f9-4a14-43ba-9897-2cc144b8e5ce" points="151.23 .08 24.15 .08 4.52 18.9 24.15 37.72 151.23 37.72 170.86 18.9 151.23 .08"/></g><polygon class="uuid-af07632c-3ae6-413e-8a06-fb8c8f918b7e" points="0 18.73 11.01 29.56 13.64 29.56 2.63 18.73 14.75 7.57 12.11 7.57 0 18.73"/><polygon class="uuid-af07632c-3ae6-413e-8a06-fb8c8f918b7e" points="0 18.73 11.01 29.56 13.64 29.56 2.63 18.73 14.75 7.57 12.11 7.57 0 18.73"/><polygon class="uuid-af07632c-3ae6-413e-8a06-fb8c8f918b7e" points="175.4 18.73 164.39 29.56 161.76 29.56 172.77 18.73 160.65 7.57 163.29 7.57 175.4 18.73"/><polygon class="uuid-af07632c-3ae6-413e-8a06-fb8c8f918b7e" points="175.4 18.73 164.39 29.56 161.76 29.56 172.77 18.73 160.65 7.57 163.29 7.57 175.4 18.73"/><g class="uuid-94d7af70-24b9-47c5-bb48-f87db7be7600"><polygon class="uuid-84f25980-5093-45c5-af36-b330c5cc6759" points="151.52 37.8 150.95 37.63 170.49 18.9 150.95 .17 151.52 0 171.24 18.9 171.15 19.02 151.52 37.8"/></g><g class="uuid-94d7af70-24b9-47c5-bb48-f87db7be7600"><polygon class="uuid-84f25980-5093-45c5-af36-b330c5cc6759" points="23.86 37.8 4.15 18.9 4.23 18.78 23.86 0 24.44 .17 4.89 18.9 24.44 37.63 23.86 37.8"/></g></g></g></g></g></svg>