<?xml version="1.0" encoding="UTF-8"?><svg xmlns="http://www.w3.org/2000/svg" viewBox="0 0 175.4 37.8"><defs><style>.uuid-7ff1149d-c17c-4c8e-9f86-18454b010ba3{isolation:isolate;}.uuid-6bd5ecca-06b4-4c78-872c-6f21858c4ab1,.uuid-437f4e40-f5de-46a2-b75d-42a30bdbeaab,.uuid-ca753fdf-4980-4251-9308-08b5c1abfaec{mix-blend-mode:color-dodge;}.uuid-6bd5ecca-06b4-4c78-872c-6f21858c4ab1,.uuid-5f1faca1-79ee-4f99-be08-716ec2430521{fill:#2b3990;}.uuid-e059dc7d-de78-4e98-9fab-584e8a9f77f0{fill:#00a79d;}.uuid-ca753fdf-4980-4251-9308-08b5c1abfaec{opacity:.3;}</style></defs><g class="uuid-7ff1149d-c17c-4c8e-9f86-18454b010ba3"><g id="uuid-c704a6ef-09af-4faa-9b20-ce469ba68721"><g id="uuid-e46859cd-93ed-42e5-ac5a-c450c94b7850"><g><g class="uuid-ca753fdf-4980-4251-9308-08b5c1abfaec"><polygon class="uuid-e059dc7d-de78-4e98-9fab-584e8a9f77f0" points="151.23 .08 24.15 .08 4.52 18.9 24.15 37.72 151.23 37.72 170.86 18.9 151.23 .08"/></g><polygon class="uuid-6bd5ecca-06b4-4c78-872c-6f21858c4ab1" points="0 18.73 11.01 29.56 13.64 29.56 2.63 18.73 14.75 7.57 12.11 7.57 0 18.73"/><polygon class="uuid-6bd5ecca-06b4-4c78-872c-6f21858c4ab1" points="0 18.73 11.01 29.56 13.64 29.56 2.63 18.73 14.75 7.57 12.11 7.57 0 18.73"/><polygon class="uuid-6bd5ecca-06b4-4c78-872c-6f21858c4ab1" points="175.4 18.73 164.39 29.56 161.76 29.56 172.77 18.73 160.65 7.57 163.29 7.57 175.4 18.73"/><polygon class="uuid-6bd5ecca-06b4-4c78-872c-6f21858c4ab1" points="175.4 18.73 164.39 29.56 161.76 29.56 172.77 18.73 160.65 7.57 163.29 7.57 175.4 18.73"/><g class="uuid-437f4e40-f5de-46a2-b75d-42a30bdbeaab"><polygon class="uuid-5f1faca1-79ee-4f99-be08-716ec2430521" points="151.52 37.8 150.95 37.63 170.49 18.9 150.95 .17 151.52 0 171.24 18.9 171.15 19.02 151.52 37.8"/></g><g class="uuid-437f4e40-f5de-46a2-b75d-42a30bdbeaab"><polygon class="uuid-5f1faca1-79ee-4f99-be08-716ec2430521" points="23.86 37.8 4.15 18.9 4.23 18.78 23.86 0 24.44 .17 4.89 18.9 24.44 37.63 23.86 37.8"/></g></g></g></g></g></svg>