<?xml version="1.0" encoding="UTF-8"?><svg xmlns="http://www.w3.org/2000/svg" viewBox="0 0 175.4 37.8"><defs><style>.uuid-3ce9ef3c-fd08-4eb3-8637-8a2a06d3501e{isolation:isolate;}.uuid-0e94707a-4aee-4437-b13b-87383742e1c6,.uuid-302b808e-23b9-4d04-a9b3-184c1807ba46,.uuid-7aefc03a-9893-420e-9120-2406df845960{mix-blend-mode:color-dodge;}.uuid-0e94707a-4aee-4437-b13b-87383742e1c6,.uuid-b78f34e9-e1ba-468d-af37-64a137ad6187{fill:#2b3990;}.uuid-f0964c0d-70cb-4254-8d84-3c15040fd922{fill:#00a79d;}.uuid-7aefc03a-9893-420e-9120-2406df845960{opacity:.3;}</style></defs><g class="uuid-3ce9ef3c-fd08-4eb3-8637-8a2a06d3501e"><g id="uuid-bab0cbbb-a084-427d-8fce-8aa9bc05e0d6"><g id="uuid-a8f445db-0f78-45ef-8a3b-b5ebce2f7865"><g><g class="uuid-7aefc03a-9893-420e-9120-2406df845960"><polygon class="uuid-f0964c0d-70cb-4254-8d84-3c15040fd922" points="151.23 .08 24.15 .08 4.52 18.9 24.15 37.72 151.23 37.72 170.86 18.9 151.23 .08"/></g><polygon class="uuid-0e94707a-4aee-4437-b13b-87383742e1c6" points="0 18.73 11.01 29.56 13.64 29.56 2.63 18.73 14.75 7.57 12.11 7.57 0 18.73"/><polygon class="uuid-0e94707a-4aee-4437-b13b-87383742e1c6" points="0 18.73 11.01 29.56 13.64 29.56 2.63 18.73 14.75 7.57 12.11 7.57 0 18.73"/><polygon class="uuid-0e94707a-4aee-4437-b13b-87383742e1c6" points="175.4 18.73 164.39 29.56 161.76 29.56 172.77 18.73 160.65 7.57 163.29 7.57 175.4 18.73"/><polygon class="uuid-0e94707a-4aee-4437-b13b-87383742e1c6" points="175.4 18.73 164.39 29.56 161.76 29.56 172.77 18.73 160.65 7.57 163.29 7.57 175.4 18.73"/><g class="uuid-302b808e-23b9-4d04-a9b3-184c1807ba46"><polygon class="uuid-b78f34e9-e1ba-468d-af37-64a137ad6187" points="151.52 37.8 150.95 37.63 170.49 18.9 150.95 .17 151.52 0 171.24 18.9 171.15 19.02 151.52 37.8"/></g><g class="uuid-302b808e-23b9-4d04-a9b3-184c1807ba46"><polygon class="uuid-b78f34e9-e1ba-468d-af37-64a137ad6187" points="23.86 37.8 4.15 18.9 4.23 18.78 23.86 0 24.44 .17 4.89 18.9 24.44 37.63 23.86 37.8"/></g></g></g></g></g></svg>