<?xml version="1.0" encoding="UTF-8"?><svg id="uuid-a7940986-90c9-43bd-abf3-8f11696ca4a5" xmlns="http://www.w3.org/2000/svg" viewBox="0 0 379 68.97"><defs><style>.uuid-4f887fea-7343-4a25-82a1-7f4f277f10c6{fill:#d7df23;}.uuid-d52cc45f-01fb-49f1-aba4-ad3eb723a627{fill:#00a79d; opacity:.5}</style></defs><g id="uuid-bbb11233-dac8-489c-9229-84a8ad7cb2e5"><g><polygon class="uuid-d52cc45f-01fb-49f1-aba4-ad3eb723a627" points="244.95 8.8 249.35 4.4 129.65 4.4 134.05 8.8 244.95 8.8"/><polygon class="uuid-d52cc45f-01fb-49f1-aba4-ad3eb723a627" points="376.2 26.24 379 29.05 302.76 29.05 305.56 26.24 376.2 26.24"/><g><polygon class="uuid-d52cc45f-01fb-49f1-aba4-ad3eb723a627" points="237.43 50.84 234.37 50.84 234.37 53.89 237.43 50.84"/><polygon class="uuid-d52cc45f-01fb-49f1-aba4-ad3eb723a627" points="238.39 55.48 244.42 55.48 249.06 50.84 243.03 50.84 238.39 55.48"/><polygon class="uuid-d52cc45f-01fb-49f1-aba4-ad3eb723a627" points="260.69 50.84 254.66 50.84 250.02 55.48 256.05 55.48 260.69 50.84"/><polygon class="uuid-d52cc45f-01fb-49f1-aba4-ad3eb723a627" points="272.32 50.84 266.29 50.84 261.65 55.48 267.68 55.48 272.32 50.84"/><polygon class="uuid-d52cc45f-01fb-49f1-aba4-ad3eb723a627" points="283.95 50.84 277.92 50.84 273.28 55.48 279.31 55.48 283.95 50.84"/><polygon class="uuid-d52cc45f-01fb-49f1-aba4-ad3eb723a627" points="295.58 50.84 289.55 50.84 284.91 55.48 290.94 55.48 295.58 50.84"/><polygon class="uuid-d52cc45f-01fb-49f1-aba4-ad3eb723a627" points="307.21 50.84 301.18 50.84 296.54 55.48 302.57 55.48 307.21 50.84"/><polygon class="uuid-d52cc45f-01fb-49f1-aba4-ad3eb723a627" points="318.84 50.84 312.81 50.84 308.17 55.48 314.2 55.48 318.84 50.84"/><polygon class="uuid-d52cc45f-01fb-49f1-aba4-ad3eb723a627" points="330.47 50.84 324.44 50.84 319.8 55.48 325.83 55.48 330.47 50.84"/><polygon class="uuid-d52cc45f-01fb-49f1-aba4-ad3eb723a627" points="342.1 50.84 336.07 50.84 331.43 55.48 337.47 55.48 342.1 50.84"/></g><g><polygon class="uuid-d52cc45f-01fb-49f1-aba4-ad3eb723a627" points="141.58 50.84 144.63 50.84 144.63 53.89 141.58 50.84"/><polygon class="uuid-d52cc45f-01fb-49f1-aba4-ad3eb723a627" points="140.61 55.48 134.58 55.48 129.94 50.84 135.98 50.84 140.61 55.48"/><polygon class="uuid-d52cc45f-01fb-49f1-aba4-ad3eb723a627" points="118.32 50.84 124.35 50.84 128.98 55.48 122.95 55.48 118.32 50.84"/><polygon class="uuid-d52cc45f-01fb-49f1-aba4-ad3eb723a627" points="106.69 50.84 112.72 50.84 117.35 55.48 111.32 55.48 106.69 50.84"/><polygon class="uuid-d52cc45f-01fb-49f1-aba4-ad3eb723a627" points="95.06 50.84 101.09 50.84 105.72 55.48 99.69 55.48 95.06 50.84"/><polygon class="uuid-d52cc45f-01fb-49f1-aba4-ad3eb723a627" points="83.43 50.84 89.46 50.84 94.09 55.48 88.06 55.48 83.43 50.84"/><polygon class="uuid-d52cc45f-01fb-49f1-aba4-ad3eb723a627" points="71.8 50.84 77.83 50.84 82.46 55.48 76.43 55.48 71.8 50.84"/><polygon class="uuid-d52cc45f-01fb-49f1-aba4-ad3eb723a627" points="60.16 50.84 66.2 50.84 70.83 55.48 64.8 55.48 60.16 50.84"/><polygon class="uuid-d52cc45f-01fb-49f1-aba4-ad3eb723a627" points="48.53 50.84 54.57 50.84 59.2 55.48 53.17 55.48 48.53 50.84"/><polygon class="uuid-d52cc45f-01fb-49f1-aba4-ad3eb723a627" points="36.9 50.84 42.94 50.84 47.57 55.48 41.54 55.48 36.9 50.84"/></g><g><polygon class="uuid-d52cc45f-01fb-49f1-aba4-ad3eb723a627" points="237.43 18.13 234.37 18.13 234.37 15.08 237.43 18.13"/><polygon class="uuid-d52cc45f-01fb-49f1-aba4-ad3eb723a627" points="238.39 13.5 244.42 13.5 249.06 18.13 243.03 18.13 238.39 13.5"/><polygon class="uuid-d52cc45f-01fb-49f1-aba4-ad3eb723a627" points="260.69 18.13 254.66 18.13 250.02 13.5 256.05 13.5 260.69 18.13"/><polygon class="uuid-d52cc45f-01fb-49f1-aba4-ad3eb723a627" points="272.32 18.13 266.29 18.13 261.65 13.5 267.68 13.5 272.32 18.13"/><polygon class="uuid-d52cc45f-01fb-49f1-aba4-ad3eb723a627" points="283.95 18.13 277.92 18.13 273.28 13.5 279.31 13.5 283.95 18.13"/><polygon class="uuid-d52cc45f-01fb-49f1-aba4-ad3eb723a627" points="295.58 18.13 289.55 18.13 284.91 13.5 290.94 13.5 295.58 18.13"/><polygon class="uuid-d52cc45f-01fb-49f1-aba4-ad3eb723a627" points="307.21 18.13 301.18 18.13 296.54 13.5 302.57 13.5 307.21 18.13"/><polygon class="uuid-d52cc45f-01fb-49f1-aba4-ad3eb723a627" points="318.84 18.13 312.81 18.13 308.17 13.5 314.2 13.5 318.84 18.13"/><polygon class="uuid-d52cc45f-01fb-49f1-aba4-ad3eb723a627" points="330.47 18.13 324.44 18.13 319.8 13.5 325.83 13.5 330.47 18.13"/><polygon class="uuid-d52cc45f-01fb-49f1-aba4-ad3eb723a627" points="342.1 18.13 336.07 18.13 331.43 13.5 337.47 13.5 342.1 18.13"/></g><g><polygon class="uuid-d52cc45f-01fb-49f1-aba4-ad3eb723a627" points="141.58 18.13 144.63 18.13 144.63 15.08 141.58 18.13"/><polygon class="uuid-d52cc45f-01fb-49f1-aba4-ad3eb723a627" points="140.61 13.5 134.58 13.5 129.94 18.13 135.98 18.13 140.61 13.5"/><polygon class="uuid-d52cc45f-01fb-49f1-aba4-ad3eb723a627" points="118.32 18.13 124.35 18.13 128.98 13.5 122.95 13.5 118.32 18.13"/><polygon class="uuid-d52cc45f-01fb-49f1-aba4-ad3eb723a627" points="106.69 18.13 112.72 18.13 117.35 13.5 111.32 13.5 106.69 18.13"/><polygon class="uuid-d52cc45f-01fb-49f1-aba4-ad3eb723a627" points="95.06 18.13 101.09 18.13 105.72 13.5 99.69 13.5 95.06 18.13"/><polygon class="uuid-d52cc45f-01fb-49f1-aba4-ad3eb723a627" points="83.43 18.13 89.46 18.13 94.09 13.5 88.06 13.5 83.43 18.13"/><polygon class="uuid-d52cc45f-01fb-49f1-aba4-ad3eb723a627" points="71.8 18.13 77.83 18.13 82.46 13.5 76.43 13.5 71.8 18.13"/><polygon class="uuid-d52cc45f-01fb-49f1-aba4-ad3eb723a627" points="60.16 18.13 66.2 18.13 70.83 13.5 64.8 13.5 60.16 18.13"/><polygon class="uuid-d52cc45f-01fb-49f1-aba4-ad3eb723a627" points="48.53 18.13 54.57 18.13 59.2 13.5 53.17 13.5 48.53 18.13"/><polygon class="uuid-d52cc45f-01fb-49f1-aba4-ad3eb723a627" points="36.9 18.13 42.94 18.13 47.57 13.5 41.54 13.5 36.9 18.13"/></g><g><path class="uuid-4f887fea-7343-4a25-82a1-7f4f277f10c6" d="M97.94,38.82l-.37-7.79h1.77l-.34,7.79h-1.07Zm-.3,2.47v-1.49h1.62v1.49h-1.62Z"/><path class="uuid-4f887fea-7343-4a25-82a1-7f4f277f10c6" d="M109.39,44.65h-21.86c-.17,0-.33-.1-.42-.25l-1.26-2.31c-.08-.15-.08-.34,.02-.49l10.93-17.07c.09-.14,.24-.22,.4-.22h2.53c.16,0,.31,.08,.4,.22l10.93,17.07c.09,.15,.1,.33,.02,.49l-1.26,2.31c-.08,.15-.24,.25-.42,.25Zm-21.58-.95h21.3l.99-1.82-10.64-16.61h-2.01l-10.64,16.61,.99,1.82Z"/></g><g><path class="uuid-4f887fea-7343-4a25-82a1-7f4f277f10c6" d="M280.02,38.82l-.36-7.79h1.77l-.34,7.79h-1.07Zm-.3,2.47v-1.49h1.62v1.49h-1.62Z"/><path class="uuid-4f887fea-7343-4a25-82a1-7f4f277f10c6" d="M291.48,44.65h-21.86c-.17,0-.33-.1-.42-.25l-1.26-2.31c-.08-.15-.07-.34,.02-.49l10.93-17.07c.09-.14,.24-.22,.4-.22h2.53c.16,0,.32,.08,.4,.22l10.93,17.07c.09,.15,.1,.33,.02,.49l-1.26,2.31c-.08,.15-.24,.25-.42,.25Zm-21.58-.95h21.3l.99-1.82-10.64-16.61h-2.01l-10.64,16.61,.99,1.82Z"/></g><polygon class="uuid-d52cc45f-01fb-49f1-aba4-ad3eb723a627" points="369.33 23.89 347.64 2.2 343.72 2.2 340.88 2.2 314.74 2.2 312.54 0 272.98 0 270.78 2.2 232.82 2.2 228.42 6.6 277.37 6.6 278.92 5.06 306.61 5.06 308.15 6.6 345.28 6.6 362.57 23.89 369.33 23.89"/><polygon class="uuid-d52cc45f-01fb-49f1-aba4-ad3eb723a627" points="2.8 26.24 0 29.05 76.25 29.05 73.45 26.24 2.8 26.24"/><polygon class="uuid-d52cc45f-01fb-49f1-aba4-ad3eb723a627" points="9.68 23.89 31.36 2.2 35.29 2.2 38.13 2.2 64.26 2.2 66.46 0 106.02 0 108.22 2.2 146.19 2.2 150.59 6.6 101.63 6.6 100.09 5.06 72.4 5.06 70.86 6.6 33.72 6.6 16.44 23.89 9.68 23.89"/><polygon class="uuid-d52cc45f-01fb-49f1-aba4-ad3eb723a627" points="244.95 60.17 249.35 64.57 129.65 64.57 134.05 60.17 244.95 60.17"/><polygon class="uuid-d52cc45f-01fb-49f1-aba4-ad3eb723a627" points="376.2 42.73 379 39.93 302.76 39.93 305.56 42.73 376.2 42.73"/><polygon class="uuid-d52cc45f-01fb-49f1-aba4-ad3eb723a627" points="369.33 45.08 347.64 66.77 343.72 66.77 340.88 66.77 314.74 66.77 312.54 68.97 272.98 68.97 270.78 66.77 232.82 66.77 228.42 62.37 277.37 62.37 278.92 63.91 306.61 63.91 308.15 62.37 345.28 62.37 362.57 45.08 369.33 45.08"/><polygon class="uuid-d52cc45f-01fb-49f1-aba4-ad3eb723a627" points="2.8 42.73 0 39.93 76.25 39.93 73.45 42.73 2.8 42.73"/><polygon class="uuid-d52cc45f-01fb-49f1-aba4-ad3eb723a627" points="9.68 45.08 31.36 66.77 35.29 66.77 38.13 66.77 64.26 66.77 66.46 68.97 106.02 68.97 108.22 66.77 146.19 66.77 150.59 62.37 101.63 62.37 100.09 63.91 72.4 63.91 70.86 62.37 33.72 62.37 16.44 45.08 9.68 45.08"/><path class="uuid-d52cc45f-01fb-49f1-aba4-ad3eb723a627" d="M120.12,28.9c-.12,0-.24-.05-.34-.14-.19-.19-.19-.49,0-.67l6.49-6.49c.09-.09,.21-.14,.33-.14l7.85-.05h16.84l6.7-6.7c.09-.09,.21-.14,.33-.14h62.35c.13,0,.24,.05,.33,.14l6.7,6.7h16.83l7.85,.05c.13,0,.25,.05,.33,.14l6.49,6.49c.19,.19,.19,.49,0,.67-.18,.19-.49,.19-.67,0l-6.35-6.35-7.65-.05h-17.03c-.13,0-.25-.05-.34-.14l-6.7-6.7h-61.96l-6.7,6.7c-.09,.09-.21,.14-.34,.14l-24.68,.05-6.35,6.35c-.09,.09-.21,.14-.34,.14Z"/><path class="uuid-d52cc45f-01fb-49f1-aba4-ad3eb723a627" d="M220.68,54.39h-62.35c-.13,0-.25-.05-.33-.14l-6.7-6.7h-16.83l-7.85-.05c-.12,0-.24-.05-.33-.14l-6.49-6.49c-.19-.19-.19-.49,0-.67,.19-.19,.49-.19,.67,0l6.35,6.35,7.65,.05h17.03c.13,0,.25,.05,.34,.14l6.7,6.69h61.96l6.7-6.69c.09-.09,.21-.14,.34-.14l24.68-.05,6.35-6.35c.19-.19,.49-.19,.67,0,.19,.19,.19,.49,0,.67l-6.49,6.49c-.09,.09-.21,.14-.33,.14l-7.85,.05h-16.84l-6.7,6.7c-.09,.09-.21,.14-.33,.14Z"/><path class="uuid-d52cc45f-01fb-49f1-aba4-ad3eb723a627" d="M362.34,34.96h-42.93c-.26,0-.48-.21-.48-.47s.21-.48,.48-.48h42.93c.26,0,.47,.21,.47,.48s-.21,.47-.47,.47Z"/><path class="uuid-d52cc45f-01fb-49f1-aba4-ad3eb723a627" d="M59.59,34.96H16.66c-.26,0-.48-.21-.48-.47s.21-.48,.48-.48H59.59c.26,0,.48,.21,.48,.48s-.21,.47-.48,.47Z"/><polygon class="uuid-d52cc45f-01fb-49f1-aba4-ad3eb723a627" points="249.62 34.49 246.01 30.87 246.01 38.1 249.62 34.49"/><polygon class="uuid-d52cc45f-01fb-49f1-aba4-ad3eb723a627" points="129.38 34.49 133 30.87 133 38.1 129.38 34.49"/></g></g></svg>