<?xml version="1.0" encoding="UTF-8"?><svg xmlns="http://www.w3.org/2000/svg" viewBox="0 0 175.4 50.52"><defs><style>.uuid-aa4894ed-1b16-4bf0-be51-2d19f7191361{isolation:isolate;}.uuid-335cd92e-334f-482a-ad88-baad5ed90637,.uuid-0e086b7f-d8ec-4886-93cf-ebabe629129b,.uuid-96ce8722-16e0-4ca8-b9ab-641fea4aa859{mix-blend-mode:color-dodge;}.uuid-335cd92e-334f-482a-ad88-baad5ed90637,.uuid-bac82027-1366-48f1-a433-0604173d0e06{fill:#2b3990;}.uuid-23089389-8b6a-4545-b884-270817cbea16{fill:#00a79d;}.uuid-96ce8722-16e0-4ca8-b9ab-641fea4aa859{opacity:.3;}</style></defs><g class="uuid-aa4894ed-1b16-4bf0-be51-2d19f7191361"><g id="uuid-38ff55e3-3016-4899-a004-85879dd13bab"><g id="uuid-1c6b5b87-335d-4222-82a7-10f69fd0cdf3"><g><g class="uuid-96ce8722-16e0-4ca8-b9ab-641fea4aa859"><polygon class="uuid-23089389-8b6a-4545-b884-270817cbea16" points="151.23 .11 24.15 .11 4.52 25.26 24.15 50.41 151.23 50.41 170.86 25.26 151.23 .11"/></g><polygon class="uuid-335cd92e-334f-482a-ad88-baad5ed90637" points="0 25.03 11.01 39.51 13.64 39.51 2.63 25.03 14.75 10.12 12.11 10.12 0 25.03"/><polygon class="uuid-335cd92e-334f-482a-ad88-baad5ed90637" points="0 25.03 11.01 39.51 13.64 39.51 2.63 25.03 14.75 10.12 12.11 10.12 0 25.03"/><polygon class="uuid-335cd92e-334f-482a-ad88-baad5ed90637" points="175.4 25.03 164.39 39.51 161.76 39.51 172.77 25.03 160.65 10.12 163.29 10.12 175.4 25.03"/><polygon class="uuid-335cd92e-334f-482a-ad88-baad5ed90637" points="175.4 25.03 164.39 39.51 161.76 39.51 172.77 25.03 160.65 10.12 163.29 10.12 175.4 25.03"/><g class="uuid-0e086b7f-d8ec-4886-93cf-ebabe629129b"><polygon class="uuid-bac82027-1366-48f1-a433-0604173d0e06" points="151.52 50.52 150.95 50.3 170.49 25.26 150.95 .23 151.52 0 171.24 25.26 171.15 25.42 151.52 50.52"/></g><g class="uuid-0e086b7f-d8ec-4886-93cf-ebabe629129b"><polygon class="uuid-bac82027-1366-48f1-a433-0604173d0e06" points="23.86 50.52 4.15 25.26 4.23 25.1 23.86 0 24.44 .23 4.89 25.26 24.44 50.3 23.86 50.52"/></g></g></g></g></g></svg>