<?xml version="1.0" standalone="no"?>
<!DOCTYPE svg PUBLIC "-//W3C//DTD SVG 1.1//EN" "http://www.w3.org/Graphics/SVG/1.1/DTD/svg11.dtd" >
<svg xmlns="http://www.w3.org/2000/svg" xmlns:xlink="http://www.w3.org/1999/xlink" version="1.1">
<metadata>
Created by FontForge 20200427 at Wed Jul 18 21:29:44 2012
 By www
Copyright (c) 2008 by Mark Simonson. All rights reserved.
</metadata>
<defs>
<font id="ChangelingNeoW01-Bold" horiz-adv-x="840" >
  <font-face 
    font-family="ChangelingNeoW01-Bold"
    font-weight="700"
    font-stretch="normal"
    units-per-em="1000"
    panose-1="2 0 0 0 0 0 0 0 0 0"
    ascent="674"
    descent="-326"
    x-height="552"
    cap-height="552"
    bbox="-204 -214 1460 889"
    underline-thickness="20"
    underline-position="-153"
    unicode-range="U+000D-2122"
  />
<missing-glyph horiz-adv-x="0" 
 />
    <glyph glyph-name=".notdef" horiz-adv-x="0" 
 />
    <glyph glyph-name=".null" horiz-adv-x="0" 
 />
    <glyph glyph-name="uni000D" unicode="&#xd;" horiz-adv-x="280" 
 />
    <glyph glyph-name="space" unicode=" " horiz-adv-x="280" 
 />
    <glyph glyph-name="exclam" unicode="!" horiz-adv-x="208" 
d="M176 204h-144v348h144v-348zM176 0h-144v144h144v-144z" />
    <glyph glyph-name="quotedbl" unicode="&#x22;" horiz-adv-x="400" 
d="M368 370q0 -33 -10.5 -62.5t-30 -53t-46 -39t-57.5 -21.5v151h49v63h-49v144h144v-182zM176 370q0 -33 -10.5 -62.5t-30 -53t-46 -39t-57.5 -21.5v151h49v63h-49v144h144v-182z" />
    <glyph glyph-name="numbersign" unicode="#" horiz-adv-x="592" 
d="M560 144h-96v-96h-96v96h-144v-96h-96v96h-96v96h96v72h-96v96h96v96h96v-96h144v96h96v-96h96v-96h-96v-72h96v-96zM368 240v72h-144v-72h144z" />
    <glyph glyph-name="dollar" unicode="$" horiz-adv-x="814" 
d="M808 174q0 -36 -13.5 -67.5t-37.5 -55.5t-55.5 -37.5t-67.5 -13.5h-155v-48h-144v48h-303v144h632v60h-484q-36 0 -68 13.5t-55.5 37.5t-37 55.5t-13.5 67.5t13.5 67.5t37 55.5t55.5 37.5t68 13.5h155v48h144v-48h303v-144h-632v-60h484q36 0 67.5 -13.5t55.5 -37.5
t37.5 -55.5t13.5 -67.5z" />
    <glyph glyph-name="percent" unicode="%" horiz-adv-x="872" 
d="M856 161q0 -36 -13.5 -67.5t-37.5 -55t-55.5 -37t-67.5 -13.5t-67.5 13.5t-55 37t-37 55t-13.5 67.5t13.5 67.5t37 55.5t55 37.5t67.5 13.5t67.5 -13.5t55.5 -37.5t37.5 -55.5t13.5 -67.5zM711 133v57h-58v-57h58zM763 552l-552 -552h-103l552 552h103zM363 396
q0 -36 -13.5 -67.5t-37.5 -55.5t-55.5 -37.5t-67.5 -13.5t-67.5 13.5t-55 37.5t-37 55.5t-13.5 67.5t13.5 67.5t37 55t55 37t67.5 13.5t67.5 -13.5t55.5 -37t37.5 -55t13.5 -67.5zM218 367v58h-57v-58h57z" />
    <glyph glyph-name="ampersand" unicode="&#x26;" horiz-adv-x="880" 
d="M864 109l-60 13q-17 -54 -62 -88t-104 -34h-433q-36 0 -67.5 13.5t-55 37.5t-37 55.5t-13.5 67.5v29q0 31 10 58.5t28 50.5q-17 19 -26 43t-9 51q0 30 11.5 57t31 46.5t46.5 31t57 11.5h631v-144h-648l504 -112v52h144v-84l52 -11v-144zM668 144v8l-488 106v-114h488z
" />
    <glyph glyph-name="quotesingle" unicode="'" horiz-adv-x="208" 
d="M176 370q0 -33 -10.5 -62.5t-30 -53t-46 -39t-57.5 -21.5v151h49v63h-49v144h144v-182z" />
    <glyph glyph-name="parenleft" unicode="(" horiz-adv-x="240" 
d="M224 -204h-18q-36 0 -67.5 13.5t-55.5 37.5t-37.5 55.5t-13.5 67.5v612q0 36 13.5 67.5t37.5 55.5t55.5 37.5t67.5 13.5h18v-144h-48v-672h48v-144z" />
    <glyph glyph-name="parenright" unicode=")" horiz-adv-x="240" 
d="M208 -30q0 -36 -13.5 -67.5t-37.5 -55.5t-55.5 -37.5t-67.5 -13.5h-18v144h48v672h-48v144h18q36 0 67.5 -13.5t55.5 -37.5t37.5 -55.5t13.5 -67.5v-612z" />
    <glyph glyph-name="asterisk" unicode="*" horiz-adv-x="538" 
d="M506 203l-139 16l83 -113l-125 -72l-56 128l-56 -128l-125 72l83 113l-139 -16v144l139 -15l-83 113l125 72l56 -128l56 128l125 -72l-83 -113l139 15v-144z" />
    <glyph glyph-name="plus" unicode="+" horiz-adv-x="584" 
d="M568 204h-204v-204h-144v204h-204v144h204v204h144v-204h204v-144z" />
    <glyph glyph-name="comma" unicode="," horiz-adv-x="208" 
d="M176 -38q0 -33 -10.5 -62.5t-30 -53t-46 -39t-57.5 -21.5v151h49v63h-49v144h144v-182z" />
    <glyph glyph-name="hyphen" unicode="-" horiz-adv-x="504" 
d="M488 203h-472v145h472v-145z" />
    <glyph glyph-name="period" unicode="." horiz-adv-x="208" 
d="M176 0h-144v144h144v-144z" />
    <glyph glyph-name="slash" unicode="/" horiz-adv-x="591" 
d="M623 552l-552 -552h-103l552 552h103z" />
    <glyph glyph-name="zero" unicode="0" 
d="M808 174q0 -36 -13.5 -67.5t-37.5 -55.5t-55.5 -37.5t-67.5 -13.5h-428q-36 0 -67.5 13.5t-55.5 37.5t-37.5 55.5t-13.5 67.5v204q0 36 13.5 67.5t37.5 55.5t55.5 37.5t67.5 13.5h428q36 0 67.5 -13.5t55.5 -37.5t37.5 -55.5t13.5 -67.5v-204zM664 144v264h-488v-264h488
z" />
    <glyph glyph-name="one" unicode="1" horiz-adv-x="386" 
d="M210 0v420l-108 -107l-102 102l108 107q20 20 46 31t56 11t56 -11.5t45.5 -31t31 -45.5t11.5 -56v-420h-144z" />
    <glyph glyph-name="two" unicode="2" horiz-adv-x="814" 
d="M808 378q0 -36 -13.5 -67.5t-37.5 -55.5t-55.5 -37.5t-67.5 -13.5h-458v-60h606v-144h-750v174q0 36 13.5 67.5t37.5 55.5t55.5 37.5t67.5 13.5h458v60h-632v144h602q36 0 67.5 -13.5t55.5 -37.5t37.5 -55.5t13.5 -67.5z" />
    <glyph glyph-name="three" unicode="3" horiz-adv-x="814" 
d="M808 156q0 -32 -13.5 -60.5t-37.5 -49.5t-55.5 -33.5t-67.5 -12.5h-602v144h632v60h-632v144h632v60h-632v144h602q36 0 67 -12.5t53.5 -33.5t35.5 -49.5t13 -60.5q0 -36 -16 -67t-43 -52q29 -22 46.5 -53t17.5 -68z" />
    <glyph glyph-name="four" unicode="4" horiz-adv-x="838" 
d="M822 144h-96v-144h-144v144h-428q-31 0 -58 11.5t-47 31.5t-31.5 47t-11.5 58q0 39 18.5 71.5t49.5 52.5l210 136h254l-401 -264h445v264h144v-264h96v-144z" />
    <glyph glyph-name="five" unicode="5" horiz-adv-x="814" 
d="M808 174q0 -36 -13.5 -67.5t-37.5 -55.5t-55.5 -37.5t-67.5 -13.5h-602v144h632v60h-632v348h750v-144h-606v-60h458q36 0 67.5 -13.5t55.5 -37.5t37.5 -55.5t13.5 -67.5z" />
    <glyph glyph-name="six" unicode="6" horiz-adv-x="814" 
d="M808 174q0 -36 -13.5 -67.5t-37.5 -55.5t-55.5 -37.5t-67.5 -13.5h-428q-36 0 -67.5 13.5t-55.5 37.5t-37.5 55.5t-13.5 67.5v204q0 36 13.5 67.5t37.5 55.5t55.5 37.5t67.5 13.5h576v-144h-606v-60h458q36 0 67.5 -13.5t55.5 -37.5t37.5 -55.5t13.5 -67.5zM664 144v60
h-488v-60h488z" />
    <glyph glyph-name="seven" unicode="7" horiz-adv-x="794" 
d="M788 404q0 -39 -18.5 -71.5t-49.5 -52.5l-433 -280h-257l629 408h-643v144h624q31 0 58 -11.5t47 -31.5t31.5 -47t11.5 -58z" />
    <glyph glyph-name="eight" unicode="8" horiz-adv-x="788" 
d="M782 156q0 -32 -13.5 -60.5t-37.5 -49.5t-55.5 -33.5t-67.5 -12.5h-428q-36 0 -67.5 12.5t-55.5 33.5t-37.5 49.5t-13.5 60.5q0 37 17.5 68t46.5 53q-28 21 -43.5 52t-15.5 67q0 32 13 60.5t35.5 49.5t53.5 33.5t67 12.5h428q36 0 66.5 -12.5t53 -33.5t35.5 -49.5
t13 -60.5q0 -36 -15.5 -67t-43.5 -52q30 -22 47.5 -53t17.5 -68zM638 348v60h-488v-60h488zM638 144v60h-488v-60h488z" />
    <glyph glyph-name="nine" unicode="9" horiz-adv-x="814" 
d="M782 174q0 -36 -13.5 -67.5t-37.5 -55.5t-55.5 -37.5t-67.5 -13.5h-576v144h606v60h-458q-36 0 -68 13.5t-55.5 37.5t-37 55.5t-13.5 67.5t13.5 67.5t37 55.5t55.5 37.5t68 13.5h428q36 0 67.5 -13.5t55.5 -37.5t37.5 -55.5t13.5 -67.5v-204zM638 348v60h-488v-60h488z
" />
    <glyph glyph-name="colon" unicode=":" horiz-adv-x="208" 
d="M176 203h-144v144h144v-144zM176 0h-144v144h144v-144z" />
    <glyph glyph-name="semicolon" unicode=";" horiz-adv-x="208" 
d="M176 203h-144v144h144v-144zM176 -38q0 -33 -10.5 -62.5t-30 -53t-46 -39t-57.5 -21.5v151h49v63h-49v144h144v-182z" />
    <glyph glyph-name="less" unicode="&#x3c;" horiz-adv-x="575" 
d="M591 48h-312l-195 102q-36 19 -57 53t-21 75t21 75t57 53l187 98h313l-442 -226z" />
    <glyph glyph-name="equal" unicode="=" horiz-adv-x="584" 
d="M568 300h-552v144h552v-144zM568 108h-552v144h552v-144z" />
    <glyph glyph-name="greater" unicode="&#x3e;" horiz-adv-x="576" 
d="M570 278q0 -41 -21.5 -75t-56.5 -53l-195 -102h-313l450 230l-442 226h312l188 -98q35 -19 56.5 -53t21.5 -75z" />
    <glyph glyph-name="question" unicode="?" horiz-adv-x="798" 
d="M792 378q0 -36 -13.5 -67.5t-37.5 -55.5t-55.5 -37.5t-67.5 -13.5h-458v144h488v60h-632v144h602q36 0 67.5 -13.5t55.5 -37.5t37.5 -55.5t13.5 -67.5zM304 0h-144v144h144v-144z" />
    <glyph glyph-name="at" unicode="@" 
d="M808 0h-651q-26 0 -49 10t-40 27t-27 40t-10 49v300q0 26 10 49t27 40t40 27t49 10h525q26 0 49 -10t40 -27t27 -40t10 -49v-330h-519q-36 0 -67.5 13.5t-55.5 37.5t-37.5 55.5t-13.5 67.5v12q0 36 13.5 67.5t37.5 55.5t55.5 37.5t67.5 13.5h423v-216h48v264h-681v-456
h729v-48zM568 240v72h-309v-72h309z" />
    <glyph glyph-name="A" unicode="A" horiz-adv-x="923" 
d="M955 0h-183l-78 106h-465l-78 -106h-183l368 493q23 29 54.5 50t71.5 21q39 0 71 -21t54 -50zM589 250l-128 176l-128 -176h256z" />
    <glyph glyph-name="B" unicode="B" horiz-adv-x="814" 
d="M808 156q0 -32 -13.5 -60.5t-37.5 -49.5t-55.5 -33.5t-67.5 -12.5h-602v552h602q36 0 67 -12.5t53.5 -33.5t35.5 -49.5t13 -60.5q0 -36 -16 -67t-43 -52q29 -22 46.5 -53t17.5 -68zM664 348v60h-488v-60h488zM664 144v60h-488v-60h488z" />
    <glyph glyph-name="C" unicode="C" horiz-adv-x="824" 
d="M808 0h-602q-36 0 -67.5 13.5t-55.5 37.5t-37.5 55.5t-13.5 67.5v204q0 36 13.5 67.5t37.5 55.5t55.5 37.5t67.5 13.5h602v-144h-632v-264h632v-144z" />
    <glyph glyph-name="D" unicode="D" 
d="M808 174q0 -36 -13.5 -67.5t-37.5 -55.5t-55.5 -37.5t-67.5 -13.5h-602v552h602q36 0 67.5 -13.5t55.5 -37.5t37.5 -55.5t13.5 -67.5v-204zM664 144v264h-488v-264h488z" />
    <glyph glyph-name="E" unicode="E" 
d="M808 0h-602q-36 0 -67.5 13.5t-55.5 37.5t-37.5 55.5t-13.5 67.5v204q0 36 13.5 67.5t37.5 55.5t55.5 37.5t67.5 13.5h602v-144h-632v-60h632v-144h-632v-60h632v-144z" />
    <glyph glyph-name="F" unicode="F" horiz-adv-x="824" 
d="M808 204h-632v-204h-144v378q0 36 13.5 67.5t37.5 55.5t55.5 37.5t67.5 13.5h602v-144h-632v-60h632v-144z" />
    <glyph glyph-name="G" unicode="G" 
d="M808 174q0 -36 -13.5 -67.5t-37.5 -55.5t-55.5 -37.5t-67.5 -13.5h-428q-36 0 -67.5 13.5t-55.5 37.5t-37.5 55.5t-13.5 67.5v204q0 36 13.5 67.5t37.5 55.5t55.5 37.5t67.5 13.5h602v-144h-632v-264h488v60h-244v144h388v-174z" />
    <glyph glyph-name="H" unicode="H" 
d="M808 0h-144v204h-488v-204h-144v552h144v-204h488v204h144v-552z" />
    <glyph glyph-name="I" unicode="I" horiz-adv-x="208" 
d="M176 0h-144v552h144v-552z" />
    <glyph glyph-name="J" unicode="J" horiz-adv-x="680" 
d="M648 174q0 -36 -13.5 -67.5t-37.5 -55.5t-55.5 -37.5t-67.5 -13.5h-458v144h488v408h144v-378z" />
    <glyph glyph-name="K" unicode="K" horiz-adv-x="815" 
d="M854 0h-313l-289 150q-30 16 -50.5 44.5t-25.5 63.5v-258h-144v552h144v-254q5 35 25.5 63.5t50.5 44.5l282 146h313l-536 -274z" />
    <glyph glyph-name="L" unicode="L" horiz-adv-x="680" 
d="M664 0h-458q-36 0 -67.5 13.5t-55.5 37.5t-37.5 55.5t-13.5 67.5v378h144v-408h488v-144z" />
    <glyph glyph-name="M" unicode="M" horiz-adv-x="1024" 
d="M992 0h-144v420l-211 -361q-19 -32 -52 -51.5t-73 -19.5t-72.5 19.5t-51.5 51.5l-212 361v-420h-144v420q0 30 11.5 56t31 45.5t45.5 31t56 11.5q42 0 75 -21.5t53 -55.5l208 -355l209 355q20 34 52.5 55.5t74.5 21.5q30 0 56 -11.5t45.5 -31t31 -45.5t11.5 -56v-420z
" />
    <glyph glyph-name="N" unicode="N" horiz-adv-x="846" 
d="M814 552v-420q0 -30 -11.5 -56.5t-31 -46t-45.5 -30.5t-56 -11t-56 11t-46 31l-392 390v-420h-144v420q0 30 11.5 56t31 45.5t45.5 31t56 11.5t56 -11.5t46 -31.5l392 -389v420h144z" />
    <glyph glyph-name="O" unicode="O" 
d="M808 174q0 -36 -13.5 -67.5t-37.5 -55.5t-55.5 -37.5t-67.5 -13.5h-428q-36 0 -67.5 13.5t-55.5 37.5t-37.5 55.5t-13.5 67.5v204q0 36 13.5 67.5t37.5 55.5t55.5 37.5t67.5 13.5h428q36 0 67.5 -13.5t55.5 -37.5t37.5 -55.5t13.5 -67.5v-204zM664 144v264h-488v-264h488
z" />
    <glyph glyph-name="P" unicode="P" horiz-adv-x="824" 
d="M808 318q0 -36 -13.5 -67.5t-37.5 -55.5t-55.5 -37.5t-67.5 -13.5h-458v-144h-144v552h602q36 0 67.5 -13.5t55.5 -37.5t37.5 -55.5t13.5 -67.5v-60zM664 288v120h-488v-120h488z" />
    <glyph glyph-name="Q" unicode="Q" horiz-adv-x="872" 
d="M856 0h-650q-36 0 -67.5 13.5t-55.5 37.5t-37.5 55.5t-13.5 67.5v204q0 36 13.5 67.5t37.5 55.5t55.5 37.5t67.5 13.5h428q36 0 67.5 -13.5t55.5 -37.5t37.5 -55.5t13.5 -67.5v-204q0 -15 -3 -30h51v-144zM664 144v264h-488v-264h488z" />
    <glyph glyph-name="R" unicode="R" 
d="M808 0h-144v144h-488v-144h-144v552h602q36 0 67.5 -13.5t55.5 -37.5t37.5 -55.5t13.5 -67.5v-60q0 -32 -13.5 -58t-36.5 -44q23 -18 36.5 -44t13.5 -58v-114zM664 288v120h-488v-120h488z" />
    <glyph glyph-name="S" unicode="S" horiz-adv-x="814" 
d="M808 174q0 -36 -13.5 -67.5t-37.5 -55.5t-55.5 -37.5t-67.5 -13.5h-602v144h632v60h-484q-36 0 -68 13.5t-55.5 37.5t-37 55.5t-13.5 67.5t13.5 67.5t37 55.5t55.5 37.5t68 13.5h602v-144h-632v-60h484q36 0 67.5 -13.5t55.5 -37.5t37.5 -55.5t13.5 -67.5z" />
    <glyph glyph-name="T" unicode="T" horiz-adv-x="800" 
d="M784 408h-312v-408h-144v408h-312v144h768v-144z" />
    <glyph glyph-name="U" unicode="U" 
d="M808 174q0 -36 -13.5 -67.5t-37.5 -55.5t-55.5 -37.5t-67.5 -13.5h-428q-36 0 -67.5 13.5t-55.5 37.5t-37.5 55.5t-13.5 67.5v378h144v-408h488v408h144v-378z" />
    <glyph glyph-name="V" unicode="V" horiz-adv-x="923" 
d="M955 552l-368 -493q-22 -29 -54 -50t-71 -21q-40 0 -71.5 21t-54.5 50l-368 493h183l311 -426l310 426h183z" />
    <glyph glyph-name="W" unicode="W" horiz-adv-x="1074" 
d="M1090 552l-163 -470q-14 -42 -51.5 -68t-84.5 -26t-84.5 26t-51.5 68l-118 349l-118 -349q-14 -42 -51.5 -68t-84.5 -26t-84.5 26t-51.5 68l-163 470h152l147 -431l118 349q14 42 51.5 68t84.5 26t84.5 -26t51.5 -68l118 -349l146 431h153z" />
    <glyph glyph-name="X" unicode="X" horiz-adv-x="951" 
d="M972 0h-237l-209 165q-17 13 -30 30t-21 38q-8 -21 -20.5 -38t-29.5 -30l-209 -165h-237l357 278l-352 274h237l205 -161q16 -13 28.5 -30t20.5 -37q15 40 50 67l205 161h237l-352 -274z" />
    <glyph glyph-name="Y" unicode="Y" horiz-adv-x="869" 
d="M901 552l-363 -349q-15 -15 -32 -25v-178h-144v178q-8 5 -16 11t-15 14l-363 349h212l254 -254l255 254h212z" />
    <glyph glyph-name="Z" unicode="Z" horiz-adv-x="844" 
d="M838 404q0 -27 -9 -51t-25.5 -43.5t-38.5 -32.5t-47 -18l-600 -115h694v-144h-662q-31 0 -58 11.5t-47 31.5t-31.5 47t-11.5 58q0 27 9 51t25.5 43.5t38 32.5t47.5 18l600 115h-690v144h658q31 0 58 -11.5t47 -31.5t31.5 -47t11.5 -58z" />
    <glyph glyph-name="bracketleft" unicode="[" horiz-adv-x="240" 
d="M224 -204h-192v960h192v-144h-48v-672h48v-144z" />
    <glyph glyph-name="backslash" unicode="\" horiz-adv-x="591" 
d="M623 0h-103l-552 552h103z" />
    <glyph glyph-name="bracketright" unicode="]" horiz-adv-x="240" 
d="M208 -204h-192v144h48v672h-48v144h192v-960z" />
    <glyph glyph-name="asciicircum" unicode="^" horiz-adv-x="587" 
d="M293 285l-105 -150h-183l163 217q22 29 54 50t71 21t71 -21t54 -50l163 -217h-183z" />
    <glyph glyph-name="underscore" unicode="_" horiz-adv-x="751" 
d="M735 -192h-719v144h719v-144z" />
    <glyph glyph-name="grave" unicode="`" horiz-adv-x="208" 
d="M267 612h-152l-176 144h152z" />
    <glyph glyph-name="a" unicode="a" 
d="M808 0h-628q-36 0 -68 13.5t-55.5 37.5t-37 55.5t-13.5 67.5t13.5 67.5t37 55.5t55.5 37.5t68 13.5h484v60h-632v144h602q36 0 67.5 -13.5t55.5 -37.5t37.5 -55.5t13.5 -67.5v-378zM664 144v60h-514v-60h514z" />
    <glyph glyph-name="b" unicode="b" 
d="M808 174q0 -36 -13.5 -67.5t-37.5 -55.5t-55.5 -37.5t-67.5 -13.5h-602v756h144v-204h458q36 0 67.5 -13.5t55.5 -37.5t37.5 -55.5t13.5 -67.5v-204zM664 144v264h-488v-264h488z" />
    <glyph glyph-name="c" unicode="c" horiz-adv-x="824" 
d="M808 0h-602q-36 0 -67.5 13.5t-55.5 37.5t-37.5 55.5t-13.5 67.5v204q0 36 13.5 67.5t37.5 55.5t55.5 37.5t67.5 13.5h602v-144h-632v-264h632v-144z" />
    <glyph glyph-name="d" unicode="d" 
d="M808 0h-602q-36 0 -67.5 13.5t-55.5 37.5t-37.5 55.5t-13.5 67.5v204q0 36 13.5 67.5t37.5 55.5t55.5 37.5t67.5 13.5h458v204h144v-756zM664 144v264h-488v-264h488z" />
    <glyph glyph-name="e" unicode="e" 
d="M808 0h-602q-36 0 -67.5 13.5t-55.5 37.5t-37.5 55.5t-13.5 67.5v204q0 36 13.5 67.5t37.5 55.5t55.5 37.5t67.5 13.5h428q36 0 67.5 -13.5t55.5 -37.5t37.5 -55.5t13.5 -67.5v-174h-632v-60h632v-144zM664 348v60h-488v-60h488z" />
    <glyph glyph-name="f" unicode="f" horiz-adv-x="824" 
d="M808 144h-632v-348h-144v582q0 36 13.5 67.5t37.5 55.5t55.5 37.5t67.5 13.5h602v-144h-632v-120h632v-144z" />
    <glyph glyph-name="g" unicode="g" 
d="M808 -30q0 -36 -13.5 -67.5t-37.5 -55.5t-55.5 -37.5t-67.5 -13.5h-602v144h632v60h-458q-36 0 -67.5 13.5t-55.5 37.5t-37.5 55.5t-13.5 67.5v204q0 36 13.5 67.5t37.5 55.5t55.5 37.5t67.5 13.5h602v-582zM664 144v264h-488v-264h488z" />
    <glyph glyph-name="h" unicode="h" 
d="M808 0h-144v408h-488v-408h-144v756h144v-204h458q36 0 67.5 -13.5t55.5 -37.5t37.5 -55.5t13.5 -67.5v-378z" />
    <glyph glyph-name="i" unicode="i" horiz-adv-x="208" 
d="M176 612h-144v144h144v-144zM176 0h-144v552h144v-552z" />
    <glyph glyph-name="j" unicode="j" horiz-adv-x="208" 
d="M176 612h-144v144h144v-144zM176 -30q0 -36 -13.5 -67.5t-37.5 -55.5t-55.5 -37.5t-67.5 -13.5h-173v144h203v612h144v-582z" />
    <glyph glyph-name="k" unicode="k" horiz-adv-x="815" 
d="M854 0h-313l-289 150q-30 16 -50.5 44.5t-25.5 63.5v-258h-144v756h144v-458q5 35 25.5 63.5t50.5 44.5l282 146h313l-536 -274z" />
    <glyph glyph-name="l" unicode="l" horiz-adv-x="208" 
d="M176 0h-144v756h144v-756z" />
    <glyph glyph-name="m" unicode="m" horiz-adv-x="1184" 
d="M1152 0h-144v408h-344v-408h-144v408h-344v-408h-144v552h946q36 0 67.5 -13.5t55.5 -37.5t37.5 -55.5t13.5 -67.5v-378z" />
    <glyph glyph-name="n" unicode="n" 
d="M808 0h-144v408h-488v-408h-144v552h602q36 0 67.5 -13.5t55.5 -37.5t37.5 -55.5t13.5 -67.5v-378z" />
    <glyph glyph-name="o" unicode="o" 
d="M808 174q0 -36 -13.5 -67.5t-37.5 -55.5t-55.5 -37.5t-67.5 -13.5h-428q-36 0 -67.5 13.5t-55.5 37.5t-37.5 55.5t-13.5 67.5v204q0 36 13.5 67.5t37.5 55.5t55.5 37.5t67.5 13.5h428q36 0 67.5 -13.5t55.5 -37.5t37.5 -55.5t13.5 -67.5v-204zM664 144v264h-488v-264h488
z" />
    <glyph glyph-name="p" unicode="p" 
d="M808 174q0 -36 -13.5 -67.5t-37.5 -55.5t-55.5 -37.5t-67.5 -13.5h-458v-204h-144v756h602q36 0 67.5 -13.5t55.5 -37.5t37.5 -55.5t13.5 -67.5v-204zM664 144v264h-488v-264h488z" />
    <glyph glyph-name="q" unicode="q" 
d="M808 -204h-144v204h-458q-36 0 -67.5 13.5t-55.5 37.5t-37.5 55.5t-13.5 67.5v204q0 36 13.5 67.5t37.5 55.5t55.5 37.5t67.5 13.5h602v-756zM664 144v264h-488v-264h488z" />
    <glyph glyph-name="r" unicode="r" horiz-adv-x="824" 
d="M808 252h-144v156h-488v-408h-144v552h602q36 0 67.5 -13.5t55.5 -37.5t37.5 -55.5t13.5 -67.5v-126z" />
    <glyph glyph-name="s" unicode="s" horiz-adv-x="814" 
d="M808 174q0 -36 -13.5 -67.5t-37.5 -55.5t-55.5 -37.5t-67.5 -13.5h-602v144h632v60h-484q-36 0 -68 13.5t-55.5 37.5t-37 55.5t-13.5 67.5t13.5 67.5t37 55.5t55.5 37.5t68 13.5h602v-144h-632v-60h484q36 0 67.5 -13.5t55.5 -37.5t37.5 -55.5t13.5 -67.5z" />
    <glyph glyph-name="t" unicode="t" 
d="M808 0h-602q-36 0 -67.5 13.5t-55.5 37.5t-37.5 55.5t-13.5 67.5v582h144v-204h632v-144h-632v-264h632v-144z" />
    <glyph glyph-name="u" unicode="u" 
d="M808 0h-602q-36 0 -67.5 13.5t-55.5 37.5t-37.5 55.5t-13.5 67.5v378h144v-408h488v408h144v-552z" />
    <glyph glyph-name="v" unicode="v" horiz-adv-x="923" 
d="M955 552l-368 -493q-22 -29 -54 -50t-71 -21q-40 0 -71.5 21t-54.5 50l-368 493h183l311 -426l310 426h183z" />
    <glyph glyph-name="w" unicode="w" horiz-adv-x="1074" 
d="M1090 552l-163 -470q-14 -42 -51.5 -68t-84.5 -26t-84.5 26t-51.5 68l-118 349l-118 -349q-14 -42 -51.5 -68t-84.5 -26t-84.5 26t-51.5 68l-163 470h152l147 -431l118 349q14 42 51.5 68t84.5 26t84.5 -26t51.5 -68l118 -349l146 431h153z" />
    <glyph glyph-name="x" unicode="x" horiz-adv-x="951" 
d="M972 0h-237l-209 165q-17 13 -30 30t-21 38q-8 -21 -20.5 -38t-29.5 -30l-209 -165h-237l357 278l-352 274h237l205 -161q16 -13 28.5 -30t20.5 -37q15 40 50 67l205 161h237l-352 -274z" />
    <glyph glyph-name="y" unicode="y" 
d="M808 -30q0 -36 -13.5 -67.5t-37.5 -55.5t-55.5 -37.5t-67.5 -13.5h-602v144h632v60h-458q-36 0 -67.5 13.5t-55.5 37.5t-37.5 55.5t-13.5 67.5v378h144v-408h488v408h144v-582z" />
    <glyph glyph-name="z" unicode="z" horiz-adv-x="844" 
d="M838 404q0 -27 -9 -51t-25.5 -43.5t-38.5 -32.5t-47 -18l-600 -115h694v-144h-662q-31 0 -58 11.5t-47 31.5t-31.5 47t-11.5 58q0 27 9 51t25.5 43.5t38 32.5t47.5 18l600 115h-690v144h658q31 0 58 -11.5t47 -31.5t31.5 -47t11.5 -58z" />
    <glyph glyph-name="braceleft" unicode="{" horiz-adv-x="272" 
d="M256 -204h-18q-36 0 -67.5 13.5t-55.5 37.5t-37.5 55.5t-13.5 67.5v234h-48v144h48v234q0 36 13.5 67.5t37.5 55.5t55.5 37.5t67.5 13.5h18v-144h-48v-186q0 -48 -23.5 -87.5t-62.5 -62.5q39 -23 62.5 -62.5t23.5 -87.5v-186h48v-144z" />
    <glyph glyph-name="bar" unicode="|" horiz-adv-x="136" 
d="M104 -204h-72v960h72v-960z" />
    <glyph glyph-name="braceright" unicode="}" horiz-adv-x="272" 
d="M256 204h-48v-234q0 -36 -13.5 -67.5t-37.5 -55.5t-55.5 -37.5t-67.5 -13.5h-18v144h48v186q0 48 23.5 87.5t62.5 62.5q-39 23 -62.5 62.5t-23.5 87.5v186h-48v144h18q36 0 67.5 -13.5t55.5 -37.5t37.5 -55.5t13.5 -67.5v-234h48v-144z" />
    <glyph glyph-name="asciitilde" unicode="~" horiz-adv-x="587" 
d="M144 174h-147l95 147q20 31 52.5 49.5t71.5 18.5t71.5 -18.5t52.5 -49.5l33 -51l70 108h147l-95 -147q-20 -31 -52.5 -49.5t-71.5 -18.5t-71.5 18.5t-52.5 49.5l-33 51z" />
    <glyph glyph-name="uni00A0" unicode="&#xa0;" horiz-adv-x="280" 
 />
    <glyph glyph-name="exclamdown" unicode="&#xa1;" horiz-adv-x="208" 
d="M176 408h-144v144h144v-144zM176 0h-144v348h144v-348z" />
    <glyph glyph-name="cent" unicode="&#xa2;" horiz-adv-x="824" 
d="M808 0h-316v-48h-144v48h-142q-36 0 -67.5 13.5t-55.5 37.5t-37.5 55.5t-13.5 67.5v204q0 36 13.5 67.5t37.5 55.5t55.5 37.5t67.5 13.5h142v48h144v-48h316v-144h-632v-264h632v-144z" />
    <glyph glyph-name="sterling" unicode="&#xa3;" horiz-adv-x="824" 
d="M792 0h-776v144h152v60h-152v144h152v30q0 36 13.5 67.5t37.5 55.5t55.5 37.5t67.5 13.5h450v-144h-480v-60h480v-144h-480v-60h480v-144z" />
    <glyph glyph-name="currency" unicode="&#xa4;" horiz-adv-x="695" 
d="M675 552l-111 -111q29 -24 46.5 -58.5t17.5 -75.5v-60q0 -42 -17.5 -77t-47.5 -59l112 -111h-103l-78 77q-17 -4 -40 -4h-214q-23 0 -40 4l-77 -77h-103l111 111q-30 24 -47.5 59t-17.5 77v60q0 41 17.5 76t46.5 59l-110 110h103l76 -76q22 5 41 5h214q19 0 42 -5l76 76
h103zM484 217v120h-274v-120h274z" />
    <glyph glyph-name="yen" unicode="&#xa5;" horiz-adv-x="869" 
d="M901 552l-348 -336h284v-48h-331v-48h331v-48h-331v-72h-144v72h-330v48h330v48h-330v48h284l-348 336h212l254 -254l255 254h212z" />
    <glyph glyph-name="brokenbar" unicode="&#xa6;" horiz-adv-x="136" 
d="M104 348h-72v408h72v-408zM104 203v-407h-72v407h72z" />
    <glyph glyph-name="section" unicode="&#xa7;" horiz-adv-x="790" 
d="M639 246v60h-488v-60h488zM176 102q-36 0 -67 12.5t-53.5 33.5t-35.5 49.5t-13 60.5q0 36 16 67t43 52q-27 21 -43.5 53t-16.5 68q0 32 13 60.5t35.5 49.5t53.5 33.5t67 12.5h581v-144h-605v-60h463q36 0 67 -12.5t53.5 -33.5t35.5 -49.5t13 -60.5q0 -36 -16 -67t-43 -52
q27 -21 43.5 -53t16.5 -68q0 -32 -13 -60.5t-35.5 -49.5t-53.5 -33.5t-67 -12.5h-581v144h605v60h-463z" />
    <glyph glyph-name="dieresis" unicode="&#xa8;" horiz-adv-x="208" 
d="M280 612h-144v144h144v-144zM72 612h-144v144h144v-144z" />
    <glyph glyph-name="copyright" unicode="&#xa9;" horiz-adv-x="841" 
d="M809 126q0 -26 -10 -49t-27 -40t-40 -27t-49 -10h-525q-26 0 -49 10t-40 27t-27 40t-10 49v300q0 26 10 49t27 40t40 27t49 10h525q26 0 49 -10t40 -27t27 -40t10 -49v-300zM761 48v456h-681v-456h681zM713 96h-423q-36 0 -67.5 13.5t-55.5 37.5t-37.5 55.5t-13.5 67.5
v12q0 36 13.5 67.5t37.5 55.5t55.5 37.5t67.5 13.5h423v-144h-453v-72h453v-144z" />
    <glyph glyph-name="ordfeminine" unicode="&#xaa;" horiz-adv-x="696" 
d="M664 144h-458q-36 0 -67.5 13.5t-55.5 37.5t-37.5 55.5t-13.5 67.5v60q0 36 13.5 67.5t37.5 55.5t55.5 37.5t67.5 13.5h458v-408zM520 288v120h-344v-120h344z" />
    <glyph glyph-name="guillemotleft" unicode="&#xab;" horiz-adv-x="586" 
d="M586 96h-204q-21 21 -40.5 40t-34.5 39.5t-24 44.5t-9 56t9 56t24 44.5t34.5 39.5t40.5 40h204l-180 -180zM318 96h-204q-21 21 -40.5 40t-34.5 39.5t-24 44.5t-9 56t9 56t24 44.5t34.5 39.5t40.5 40h204l-180 -180z" />
    <glyph glyph-name="logicalnot" unicode="&#xac;" horiz-adv-x="584" 
d="M552 444v-336h-144v192h-392v144h536z" />
    <glyph glyph-name="uni00AD" unicode="&#xad;" horiz-adv-x="504" 
d="M488 203h-472v145h472v-145z" />
    <glyph glyph-name="registered" unicode="&#xae;" horiz-adv-x="601" 
d="M569 282q0 -26 -10 -49t-27 -40t-40 -27t-49 -10h-285q-26 0 -49 10t-40 27t-27 40t-10 49v144q0 26 10 49t27 40t40 27t49 10h285q26 0 49 -10t40 -27t27 -40t10 -49v-144zM521 204v300h-441v-300h441zM484 252h-48v48h-260v-48h-48v204h281q32 0 53.5 -22t21.5 -53
q0 -22 -11 -35.5t-29 -20.5q18 -7 29 -20t11 -33v-20zM436 348v60h-260v-60h260z" />
    <glyph glyph-name="macron" unicode="&#xaf;" horiz-adv-x="208" 
d="M280 612h-352v96h352v-96z" />
    <glyph glyph-name="degree" unicode="&#xb0;" horiz-adv-x="359" 
d="M353 396q0 -36 -13.5 -67.5t-37.5 -55.5t-55.5 -37.5t-67.5 -13.5t-67.5 13.5t-55 37.5t-37 55.5t-13.5 67.5t13.5 67.5t37 55t55 37t67.5 13.5t67.5 -13.5t55.5 -37t37.5 -55t13.5 -67.5zM208 367v58h-57v-58h57z" />
    <glyph glyph-name="plusminus" unicode="&#xb1;" horiz-adv-x="584" 
d="M568 -144h-552v144h552v-144zM568 204h-204v-156h-144v156h-204v144h204v204h144v-204h204v-144z" />
    <glyph glyph-name="uni00B2" unicode="&#xb2;" horiz-adv-x="527" 
d="M521 442q0 -23 -8.5 -42.5t-23.5 -34.5t-35 -23.5t-43 -8.5h-288v-38h382v-91h-473v110q0 22 8.5 42t23.5 35t35 23.5t43 8.5h288v38h-398v91h379q23 0 43 -8.5t35 -23.5t23.5 -35t8.5 -43z" />
    <glyph glyph-name="uni00B3" unicode="&#xb3;" horiz-adv-x="527" 
d="M521 302q0 -20 -8.5 -38t-23.5 -31.5t-35 -21t-43 -7.5h-379v91h398v38h-398v90h398v38h-398v91h379q23 0 42.5 -7.5t34 -21t22.5 -31.5t8 -39q0 -23 -10 -42t-27 -32q18 -14 29 -34t11 -43z" />
    <glyph glyph-name="acute" unicode="&#xb4;" horiz-adv-x="208" 
d="M268 756l-176 -144h-152l176 144h152z" />
    <glyph glyph-name="mu" unicode="&#xb5;" 
d="M176 0v-204h-144v756h144v-408h488v408h144v-552h-632z" />
    <glyph glyph-name="paragraph" unicode="&#xb6;" horiz-adv-x="680" 
d="M648 174q0 -36 -13.5 -67.5t-37.5 -55.5t-55.5 -37.5t-67.5 -13.5h-280l148 -68v-131l-258 138q-36 19 -57 53t-21 75t21 74.5t57 53.5l251 136v-133l-140 -64h329v418h124v-378z" />
    <glyph glyph-name="periodcentered" unicode="&#xb7;" horiz-adv-x="208" 
d="M176 204h-144v144h144v-144z" />
    <glyph glyph-name="cedilla" unicode="&#xb8;" horiz-adv-x="208" 
d="M268 -60l-176 -144h-151l176 144h151z" />
    <glyph glyph-name="uni00B9" unicode="&#xb9;" horiz-adv-x="255" 
d="M223 204h-91v265l-68 -68l-64 64l68 68q26 26 64 26q19 0 35.5 -7t29 -19t19.5 -28.5t7 -35.5v-265z" />
    <glyph glyph-name="ordmasculine" unicode="&#xba;" horiz-adv-x="696" 
d="M664 318q0 -36 -13.5 -67.5t-37.5 -55.5t-55.5 -37.5t-67.5 -13.5h-284q-36 0 -67.5 13.5t-55.5 37.5t-37.5 55.5t-13.5 67.5v60q0 36 13.5 67.5t37.5 55.5t55.5 37.5t67.5 13.5h284q36 0 67.5 -13.5t55.5 -37.5t37.5 -55.5t13.5 -67.5v-60zM520 288v120h-344v-120h344z
" />
    <glyph glyph-name="guillemotright" unicode="&#xbb;" horiz-adv-x="586" 
d="M580 276q0 -32 -9 -56t-24 -44.5t-34.5 -39.5t-40.5 -40h-204l180 180l-180 180h204q21 -21 40.5 -40t34.5 -39.5t24 -44.5t9 -56zM312 276q0 -32 -9 -56t-24 -44.5t-34.5 -39.5t-40.5 -40h-204l180 180l-180 180h204q21 -21 40.5 -40t34.5 -39.5t24 -44.5t9 -56z" />
    <glyph glyph-name="onequarter" unicode="&#xbc;" horiz-adv-x="952" 
d="M223 204h-91v265l-68 -68l-64 64l68 68q26 26 64 26q19 0 35.5 -7t29 -19t19.5 -28.5t7 -35.5v-265zM936 91h-60v-91h-91v91h-270q-19 0 -36 7t-29.5 20t-20 29.5t-7.5 36.5q0 25 11.5 45t31.5 33l132 86h160l-252 -167h280v167h91v-167h60v-90zM706 552l-552 -552h-103
l552 552h103z" />
    <glyph glyph-name="onehalf" unicode="&#xbd;" horiz-adv-x="1029" 
d="M223 204h-91v265l-68 -68l-64 64l68 68q26 26 64 26q19 0 35.5 -7t29 -19t19.5 -28.5t7 -35.5v-265zM1023 238q0 -23 -8.5 -42.5t-23.5 -34.5t-35 -23.5t-43 -8.5h-288v-38h382v-91h-473v110q0 22 8.5 42t23.5 35t35 23.5t43 8.5h288v38h-398v91h379q23 0 43 -8.5
t35 -23.5t23.5 -35t8.5 -43zM706 552l-552 -552h-103l552 552h103z" />
    <glyph glyph-name="threequarters" unicode="&#xbe;" horiz-adv-x="1194" 
d="M521 302q0 -20 -8.5 -38t-23.5 -31.5t-35 -21t-43 -7.5h-379v91h398v38h-398v90h398v38h-398v91h379q23 0 42.5 -7.5t34 -21t22.5 -31.5t8 -39q0 -23 -10 -42t-27 -32q18 -14 29 -34t11 -43zM1178 91h-60v-91h-91v91h-270q-19 0 -36 7t-29.5 20t-20 29.5t-7.5 36.5
q0 25 11.5 45t31.5 33l132 86h160l-252 -167h280v167h91v-167h60v-90zM948 552l-552 -552h-103l552 552h103z" />
    <glyph glyph-name="questiondown" unicode="&#xbf;" horiz-adv-x="798" 
d="M638 408h-144v144h144v-144zM782 0h-602q-36 0 -67.5 13.5t-55.5 37.5t-37.5 55.5t-13.5 67.5t13.5 67.5t37.5 55.5t55.5 37.5t67.5 13.5h458v-144h-488v-60h632v-144z" />
    <glyph glyph-name="Agrave" unicode="&#xc0;" horiz-adv-x="923" 
d="M955 0h-183l-78 106h-465l-78 -106h-183l368 493q23 29 54.5 50t71.5 21q39 0 71 -21t54 -50zM589 250l-128 176l-128 -176h256zM627 612h-152l-176 144h152z" />
    <glyph glyph-name="Aacute" unicode="&#xc1;" horiz-adv-x="923" 
d="M955 0h-183l-78 106h-465l-78 -106h-183l368 493q23 29 54.5 50t71.5 21q39 0 71 -21t54 -50zM589 250l-128 176l-128 -176h256zM625 756l-176 -144h-152l176 144h152z" />
    <glyph glyph-name="Acircumflex" unicode="&#xc2;" horiz-adv-x="923" 
d="M955 0h-183l-78 106h-465l-78 -106h-183l368 493q23 29 54.5 50t71.5 21q39 0 71 -21t54 -50zM589 250l-128 176l-128 -176h256zM610 612h-116l-37 54l-37 -54h-116l74 108q13 19 33.5 30.5t45.5 11.5t45.5 -11.5t33.5 -30.5z" />
    <glyph glyph-name="Atilde" unicode="&#xc3;" horiz-adv-x="923" 
d="M955 0h-183l-78 106h-465l-78 -106h-183l368 493q23 29 54.5 50t71.5 21q39 0 71 -21t54 -50zM589 250l-128 176l-128 -176h256zM664 750l-74 -108q-13 -19 -33.5 -30.5t-45.5 -11.5t-45.5 11.5t-33.5 30.5l-17 24l-37 -54h-116l74 108q13 19 33.5 30.5t45.5 11.5
t45.5 -11.5t33.5 -30.5l17 -24l37 54h116z" />
    <glyph glyph-name="Adieresis" unicode="&#xc4;" horiz-adv-x="923" 
d="M955 0h-183l-78 106h-465l-78 -106h-183l368 493q23 29 54.5 50t71.5 21q39 0 71 -21t54 -50zM589 250l-128 176l-128 -176h256zM632 612h-144v144h144v-144zM424 612h-144v144h144v-144z" />
    <glyph glyph-name="Aring" unicode="&#xc5;" horiz-adv-x="923" 
d="M955 0h-183l-78 106h-465l-78 -106h-183l368 493q23 29 54.5 50t71.5 21q39 0 71 -21t54 -50zM589 250l-128 176l-128 -176h256zM606 745q0 -30 -11.5 -56.5t-31 -46t-45.5 -31t-56 -11.5t-56.5 11.5t-46 31t-31 46t-11.5 56.5t11.5 56t31 45.5t46 31t56.5 11.5t56 -11.5
t45.5 -31t31 -45.5t11.5 -56zM513 693v103h-102v-103h102z" />
    <glyph glyph-name="AE" unicode="&#xc6;" horiz-adv-x="1492" 
d="M1460 0h-602q-53 0 -97 29.5t-64 78.5h-381l-127 -108h-221l611 516q44 36 99 36h782v-144h-632v-60h632v-144h-632v-60h632v-144zM684 252v169l-199 -169h199z" />
    <glyph glyph-name="Ccedilla" unicode="&#xc7;" horiz-adv-x="824" 
d="M808 0h-602q-36 0 -67.5 13.5t-55.5 37.5t-37.5 55.5t-13.5 67.5v204q0 36 13.5 67.5t37.5 55.5t55.5 37.5t67.5 13.5h602v-144h-632v-264h632v-144zM582 -60l-176 -144h-151l176 144h151z" />
    <glyph glyph-name="Egrave" unicode="&#xc8;" 
d="M808 0h-602q-36 0 -67.5 13.5t-55.5 37.5t-37.5 55.5t-13.5 67.5v204q0 36 13.5 67.5t37.5 55.5t55.5 37.5t67.5 13.5h602v-144h-632v-60h632v-144h-632v-60h632v-144zM583 612h-152l-176 144h152z" />
    <glyph glyph-name="Eacute" unicode="&#xc9;" 
d="M808 0h-602q-36 0 -67.5 13.5t-55.5 37.5t-37.5 55.5t-13.5 67.5v204q0 36 13.5 67.5t37.5 55.5t55.5 37.5t67.5 13.5h602v-144h-632v-60h632v-144h-632v-60h632v-144zM583 756l-176 -144h-152l176 144h152z" />
    <glyph glyph-name="Ecircumflex" unicode="&#xca;" 
d="M808 0h-602q-36 0 -67.5 13.5t-55.5 37.5t-37.5 55.5t-13.5 67.5v204q0 36 13.5 67.5t37.5 55.5t55.5 37.5t67.5 13.5h602v-144h-632v-60h632v-144h-632v-60h632v-144zM574 612h-116l-37 54l-37 -54h-116l74 108q13 19 33.5 30.5t45.5 11.5t45.5 -11.5t33.5 -30.5z" />
    <glyph glyph-name="Edieresis" unicode="&#xcb;" 
d="M808 0h-602q-36 0 -67.5 13.5t-55.5 37.5t-37.5 55.5t-13.5 67.5v204q0 36 13.5 67.5t37.5 55.5t55.5 37.5t67.5 13.5h602v-144h-632v-60h632v-144h-632v-60h632v-144zM597 612h-144v144h144v-144zM389 612h-144v144h144v-144z" />
    <glyph glyph-name="Igrave" unicode="&#xcc;" horiz-adv-x="208" 
d="M176 0h-144v552h144v-552zM267 612h-152l-176 144h152z" />
    <glyph glyph-name="Iacute" unicode="&#xcd;" horiz-adv-x="208" 
d="M176 0h-144v552h144v-552zM268 756l-176 -144h-152l176 144h152z" />
    <glyph glyph-name="Icircumflex" unicode="&#xce;" horiz-adv-x="208" 
d="M176 0h-144v552h144v-552zM257 612h-116l-37 54l-37 -54h-116l74 108q13 19 33.5 30.5t45.5 11.5t45.5 -11.5t33.5 -30.5z" />
    <glyph glyph-name="Idieresis" unicode="&#xcf;" horiz-adv-x="208" 
d="M176 0h-144v552h144v-552zM280 612h-144v144h144v-144zM72 612h-144v144h144v-144z" />
    <glyph glyph-name="Eth" unicode="&#xd0;" 
d="M32 324v228h602q36 0 67.5 -13.5t55.5 -37.5t37.5 -55.5t13.5 -67.5v-204q0 -36 -13.5 -67.5t-37.5 -55.5t-55.5 -37.5t-67.5 -13.5h-602v228h-48v96h48zM336 228h-160v-84h488v264h-488v-84h160v-96z" />
    <glyph glyph-name="Ntilde" unicode="&#xd1;" horiz-adv-x="846" 
d="M814 552v-420q0 -30 -11.5 -56.5t-31 -46t-45.5 -30.5t-56 -11t-56 11t-46 31l-392 390v-420h-144v420q0 30 11.5 56t31 45.5t45.5 31t56 11.5t56 -11.5t46 -31.5l392 -389v420h144zM624 750l-74 -108q-13 -19 -33.5 -30.5t-45.5 -11.5t-45.5 11.5t-33.5 30.5l-17 24
l-37 -54h-116l74 108q13 19 33.5 30.5t45.5 11.5t45.5 -11.5t33.5 -30.5l17 -24l37 54h116z" />
    <glyph glyph-name="Ograve" unicode="&#xd2;" 
d="M808 174q0 -36 -13.5 -67.5t-37.5 -55.5t-55.5 -37.5t-67.5 -13.5h-428q-36 0 -67.5 13.5t-55.5 37.5t-37.5 55.5t-13.5 67.5v204q0 36 13.5 67.5t37.5 55.5t55.5 37.5t67.5 13.5h428q36 0 67.5 -13.5t55.5 -37.5t37.5 -55.5t13.5 -67.5v-204zM664 144v264h-488v-264h488
zM583 612h-152l-176 144h152z" />
    <glyph glyph-name="Oacute" unicode="&#xd3;" 
d="M808 174q0 -36 -13.5 -67.5t-37.5 -55.5t-55.5 -37.5t-67.5 -13.5h-428q-36 0 -67.5 13.5t-55.5 37.5t-37.5 55.5t-13.5 67.5v204q0 36 13.5 67.5t37.5 55.5t55.5 37.5t67.5 13.5h428q36 0 67.5 -13.5t55.5 -37.5t37.5 -55.5t13.5 -67.5v-204zM664 144v264h-488v-264h488
zM583 756l-176 -144h-152l176 144h152z" />
    <glyph glyph-name="Ocircumflex" unicode="&#xd4;" 
d="M808 174q0 -36 -13.5 -67.5t-37.5 -55.5t-55.5 -37.5t-67.5 -13.5h-428q-36 0 -67.5 13.5t-55.5 37.5t-37.5 55.5t-13.5 67.5v204q0 36 13.5 67.5t37.5 55.5t55.5 37.5t67.5 13.5h428q36 0 67.5 -13.5t55.5 -37.5t37.5 -55.5t13.5 -67.5v-204zM664 144v264h-488v-264h488
zM574 612h-116l-37 54l-37 -54h-116l74 108q13 19 33.5 30.5t45.5 11.5t45.5 -11.5t33.5 -30.5z" />
    <glyph glyph-name="Otilde" unicode="&#xd5;" 
d="M808 174q0 -36 -13.5 -67.5t-37.5 -55.5t-55.5 -37.5t-67.5 -13.5h-428q-36 0 -67.5 13.5t-55.5 37.5t-37.5 55.5t-13.5 67.5v204q0 36 13.5 67.5t37.5 55.5t55.5 37.5t67.5 13.5h428q36 0 67.5 -13.5t55.5 -37.5t37.5 -55.5t13.5 -67.5v-204zM664 144v264h-488v-264h488
zM617 750l-74 -108q-13 -19 -33.5 -30.5t-45.5 -11.5t-45.5 11.5t-33.5 30.5l-17 24l-37 -54h-116l74 108q13 19 33.5 30.5t45.5 11.5t45.5 -11.5t33.5 -30.5l17 -24l37 54h116z" />
    <glyph glyph-name="Odieresis" unicode="&#xd6;" 
d="M808 174q0 -36 -13.5 -67.5t-37.5 -55.5t-55.5 -37.5t-67.5 -13.5h-428q-36 0 -67.5 13.5t-55.5 37.5t-37.5 55.5t-13.5 67.5v204q0 36 13.5 67.5t37.5 55.5t55.5 37.5t67.5 13.5h428q36 0 67.5 -13.5t55.5 -37.5t37.5 -55.5t13.5 -67.5v-204zM664 144v264h-488v-264h488
zM597 612h-144v144h144v-144zM389 612h-144v144h144v-144z" />
    <glyph glyph-name="multiply" unicode="&#xd7;" horiz-adv-x="584" 
d="M292 175l-93 -99h-205l197 196l-197 196h205l93 -99l93 99h205l-197 -196l197 -196h-205z" />
    <glyph glyph-name="Oslash" unicode="&#xd8;" 
d="M870 552l-98 -68q17 -22 26.5 -49t9.5 -57v-204q0 -36 -13.5 -67.5t-37.5 -55.5t-55.5 -37.5t-67.5 -13.5h-428q-26 0 -50 7t-44 20l-39 -27h-103l98 68q-17 22 -26.5 49t-9.5 57v204q0 36 13.5 67.5t37.5 55.5t55.5 37.5t67.5 13.5h428q26 0 50 -7t44 -20l39 27h103z
M664 144v264l-383 -264h383zM559 408h-383v-264z" />
    <glyph glyph-name="Ugrave" unicode="&#xd9;" 
d="M808 174q0 -36 -13.5 -67.5t-37.5 -55.5t-55.5 -37.5t-67.5 -13.5h-428q-36 0 -67.5 13.5t-55.5 37.5t-37.5 55.5t-13.5 67.5v378h144v-408h488v408h144v-378zM583 612h-152l-176 144h152z" />
    <glyph glyph-name="Uacute" unicode="&#xda;" 
d="M808 174q0 -36 -13.5 -67.5t-37.5 -55.5t-55.5 -37.5t-67.5 -13.5h-428q-36 0 -67.5 13.5t-55.5 37.5t-37.5 55.5t-13.5 67.5v378h144v-408h488v408h144v-378zM583 756l-176 -144h-152l176 144h152z" />
    <glyph glyph-name="Ucircumflex" unicode="&#xdb;" 
d="M808 174q0 -36 -13.5 -67.5t-37.5 -55.5t-55.5 -37.5t-67.5 -13.5h-428q-36 0 -67.5 13.5t-55.5 37.5t-37.5 55.5t-13.5 67.5v378h144v-408h488v408h144v-378zM574 612h-116l-37 54l-37 -54h-116l74 108q13 19 33.5 30.5t45.5 11.5t45.5 -11.5t33.5 -30.5z" />
    <glyph glyph-name="Udieresis" unicode="&#xdc;" 
d="M808 174q0 -36 -13.5 -67.5t-37.5 -55.5t-55.5 -37.5t-67.5 -13.5h-428q-36 0 -67.5 13.5t-55.5 37.5t-37.5 55.5t-13.5 67.5v378h144v-408h488v408h144v-378zM597 612h-144v144h144v-144zM389 612h-144v144h144v-144z" />
    <glyph glyph-name="Yacute" unicode="&#xdd;" horiz-adv-x="869" 
d="M901 552l-363 -349q-15 -15 -32 -25v-178h-144v178q-8 5 -16 11t-15 14l-363 349h212l254 -254l255 254h212zM598 756l-176 -144h-152l176 144h152z" />
    <glyph glyph-name="Thorn" unicode="&#xde;" horiz-adv-x="824" 
d="M808 246q0 -36 -13.5 -67.5t-37.5 -55.5t-55.5 -37.5t-67.5 -13.5h-458v-72h-144v552h144v-72h458q36 0 67.5 -13.5t55.5 -37.5t37.5 -55.5t13.5 -67.5v-60zM664 216v120h-488v-120h488z" />
    <glyph glyph-name="germandbls" unicode="&#xdf;" horiz-adv-x="813" 
d="M747 277q27 -21 43.5 -53t16.5 -68q0 -32 -13 -60.5t-35.5 -49.5t-53.5 -33.5t-67 -12.5h-404v144h428v60h-428v144h428v60h-488v-612h-144v582q0 36 13.5 67.5t37.5 55.5t55.5 37.5t67.5 13.5h433q36 0 67 -12.5t53.5 -33.5t35.5 -49.5t13 -60.5q0 -36 -16 -67t-43 -52z
" />
    <glyph glyph-name="agrave" unicode="&#xe0;" 
d="M808 0h-628q-36 0 -68 13.5t-55.5 37.5t-37 55.5t-13.5 67.5t13.5 67.5t37 55.5t55.5 37.5t68 13.5h484v60h-632v144h602q36 0 67.5 -13.5t55.5 -37.5t37.5 -55.5t13.5 -67.5v-378zM664 144v60h-514v-60h514zM583 612h-152l-176 144h152z" />
    <glyph glyph-name="aacute" unicode="&#xe1;" 
d="M808 0h-628q-36 0 -68 13.5t-55.5 37.5t-37 55.5t-13.5 67.5t13.5 67.5t37 55.5t55.5 37.5t68 13.5h484v60h-632v144h602q36 0 67.5 -13.5t55.5 -37.5t37.5 -55.5t13.5 -67.5v-378zM664 144v60h-514v-60h514zM582 756l-176 -144h-152l176 144h152z" />
    <glyph glyph-name="acircumflex" unicode="&#xe2;" 
d="M808 0h-628q-36 0 -68 13.5t-55.5 37.5t-37 55.5t-13.5 67.5t13.5 67.5t37 55.5t55.5 37.5t68 13.5h484v60h-632v144h602q36 0 67.5 -13.5t55.5 -37.5t37.5 -55.5t13.5 -67.5v-378zM664 144v60h-514v-60h514zM574 612h-116l-37 54l-37 -54h-116l74 108q13 19 33.5 30.5
t45.5 11.5t45.5 -11.5t33.5 -30.5z" />
    <glyph glyph-name="atilde" unicode="&#xe3;" 
d="M808 0h-628q-36 0 -68 13.5t-55.5 37.5t-37 55.5t-13.5 67.5t13.5 67.5t37 55.5t55.5 37.5t68 13.5h484v60h-632v144h602q36 0 67.5 -13.5t55.5 -37.5t37.5 -55.5t13.5 -67.5v-378zM664 144v60h-514v-60h514zM617 750l-74 -108q-13 -19 -33.5 -30.5t-45.5 -11.5
t-45.5 11.5t-33.5 30.5l-17 24l-37 -54h-116l74 108q13 19 33.5 30.5t45.5 11.5t45.5 -11.5t33.5 -30.5l17 -24l37 54h116z" />
    <glyph glyph-name="adieresis" unicode="&#xe4;" 
d="M808 0h-628q-36 0 -68 13.5t-55.5 37.5t-37 55.5t-13.5 67.5t13.5 67.5t37 55.5t55.5 37.5t68 13.5h484v60h-632v144h602q36 0 67.5 -13.5t55.5 -37.5t37.5 -55.5t13.5 -67.5v-378zM664 144v60h-514v-60h514zM597 612h-144v144h144v-144zM389 612h-144v144h144v-144z" />
    <glyph glyph-name="aring" unicode="&#xe5;" 
d="M808 0h-628q-36 0 -68 13.5t-55.5 37.5t-37 55.5t-13.5 67.5t13.5 67.5t37 55.5t55.5 37.5t68 13.5h484v60h-632v144h602q36 0 67.5 -13.5t55.5 -37.5t37.5 -55.5t13.5 -67.5v-378zM664 144v60h-514v-60h514zM563 745q0 -30 -11.5 -56.5t-31 -46t-45.5 -31t-56 -11.5
t-56.5 11.5t-46 31t-31 46t-11.5 56.5t11.5 56t31 45.5t46 31t56.5 11.5t56 -11.5t45.5 -31t31 -45.5t11.5 -56zM470 693v103h-102v-103h102z" />
    <glyph glyph-name="ae" unicode="&#xe6;" horiz-adv-x="1472" 
d="M1440 0h-570q-41 0 -75.5 17t-58.5 46q-24 -29 -58.5 -46t-75.5 -17h-422q-36 0 -68 13.5t-55.5 37.5t-37 55.5t-13.5 67.5t13.5 67.5t37 55.5t55.5 37.5t68 13.5h484v60h-632v144h570q41 0 75.5 -17t58.5 -46q24 29 58.5 46t75.5 17h396q36 0 67.5 -13.5t55.5 -37.5
t37.5 -55.5t13.5 -67.5v-174h-632v-60h632v-144zM1296 348v60h-488v-60h488zM664 144v60h-514v-60h514z" />
    <glyph glyph-name="ccedilla" unicode="&#xe7;" 
d="M808 0h-602q-36 0 -67.5 13.5t-55.5 37.5t-37.5 55.5t-13.5 67.5v204q0 36 13.5 67.5t37.5 55.5t55.5 37.5t67.5 13.5h602v-144h-632v-264h632v-144zM582 -60l-176 -144h-151l176 144h151z" />
    <glyph glyph-name="egrave" unicode="&#xe8;" 
d="M808 0h-602q-36 0 -67.5 13.5t-55.5 37.5t-37.5 55.5t-13.5 67.5v204q0 36 13.5 67.5t37.5 55.5t55.5 37.5t67.5 13.5h428q36 0 67.5 -13.5t55.5 -37.5t37.5 -55.5t13.5 -67.5v-174h-632v-60h632v-144zM664 348v60h-488v-60h488zM583 612h-152l-176 144h152z" />
    <glyph glyph-name="eacute" unicode="&#xe9;" 
d="M808 0h-602q-36 0 -67.5 13.5t-55.5 37.5t-37.5 55.5t-13.5 67.5v204q0 36 13.5 67.5t37.5 55.5t55.5 37.5t67.5 13.5h428q36 0 67.5 -13.5t55.5 -37.5t37.5 -55.5t13.5 -67.5v-174h-632v-60h632v-144zM664 348v60h-488v-60h488zM583 756l-176 -144h-152l176 144h152z
" />
    <glyph glyph-name="ecircumflex" unicode="&#xea;" 
d="M808 0h-602q-36 0 -67.5 13.5t-55.5 37.5t-37.5 55.5t-13.5 67.5v204q0 36 13.5 67.5t37.5 55.5t55.5 37.5t67.5 13.5h428q36 0 67.5 -13.5t55.5 -37.5t37.5 -55.5t13.5 -67.5v-174h-632v-60h632v-144zM664 348v60h-488v-60h488zM574 612h-116l-37 54l-37 -54h-116
l74 108q13 19 33.5 30.5t45.5 11.5t45.5 -11.5t33.5 -30.5z" />
    <glyph glyph-name="edieresis" unicode="&#xeb;" 
d="M808 0h-602q-36 0 -67.5 13.5t-55.5 37.5t-37.5 55.5t-13.5 67.5v204q0 36 13.5 67.5t37.5 55.5t55.5 37.5t67.5 13.5h428q36 0 67.5 -13.5t55.5 -37.5t37.5 -55.5t13.5 -67.5v-174h-632v-60h632v-144zM664 348v60h-488v-60h488zM597 612h-144v144h144v-144zM389 612
h-144v144h144v-144z" />
    <glyph glyph-name="igrave" unicode="&#xec;" horiz-adv-x="208" 
d="M176 0h-144v552h144v-552zM267 612h-152l-176 144h152z" />
    <glyph glyph-name="iacute" unicode="&#xed;" horiz-adv-x="208" 
d="M176 0h-144v552h144v-552zM268 756l-176 -144h-152l176 144h152z" />
    <glyph glyph-name="icircumflex" unicode="&#xee;" horiz-adv-x="208" 
d="M176 0h-144v552h144v-552zM257 612h-116l-37 54l-37 -54h-116l74 108q13 19 33.5 30.5t45.5 11.5t45.5 -11.5t33.5 -30.5z" />
    <glyph glyph-name="idieresis" unicode="&#xef;" horiz-adv-x="208" 
d="M176 0h-144v552h144v-552zM280 612h-144v144h144v-144zM72 612h-144v144h144v-144z" />
    <glyph glyph-name="eth" unicode="&#xf0;" 
d="M154 660h186l-149 96h224l145 -96h248v-48h-176l87 -57q45 -29 67 -66.5t22 -85.5v-229q0 -36 -13.5 -67.5t-37.5 -55.5t-55.5 -37.5t-67.5 -13.5h-428q-36 0 -67.5 13.5t-55.5 37.5t-37.5 55.5t-13.5 67.5v204q0 36 13.5 67.5t37.5 55.5t55.5 37.5t67.5 13.5h302l-93 60
h-261v48zM664 144v264h-488v-264h488z" />
    <glyph glyph-name="ntilde" unicode="&#xf1;" 
d="M808 0h-144v408h-488v-408h-144v552h602q36 0 67.5 -13.5t55.5 -37.5t37.5 -55.5t13.5 -67.5v-378zM617 750l-74 -108q-13 -19 -33.5 -30.5t-45.5 -11.5t-45.5 11.5t-33.5 30.5l-17 24l-37 -54h-116l74 108q13 19 33.5 30.5t45.5 11.5t45.5 -11.5t33.5 -30.5l17 -24
l37 54h116z" />
    <glyph glyph-name="ograve" unicode="&#xf2;" 
d="M808 174q0 -36 -13.5 -67.5t-37.5 -55.5t-55.5 -37.5t-67.5 -13.5h-428q-36 0 -67.5 13.5t-55.5 37.5t-37.5 55.5t-13.5 67.5v204q0 36 13.5 67.5t37.5 55.5t55.5 37.5t67.5 13.5h428q36 0 67.5 -13.5t55.5 -37.5t37.5 -55.5t13.5 -67.5v-204zM664 144v264h-488v-264h488
zM583 612h-152l-176 144h152z" />
    <glyph glyph-name="oacute" unicode="&#xf3;" 
d="M808 174q0 -36 -13.5 -67.5t-37.5 -55.5t-55.5 -37.5t-67.5 -13.5h-428q-36 0 -67.5 13.5t-55.5 37.5t-37.5 55.5t-13.5 67.5v204q0 36 13.5 67.5t37.5 55.5t55.5 37.5t67.5 13.5h428q36 0 67.5 -13.5t55.5 -37.5t37.5 -55.5t13.5 -67.5v-204zM664 144v264h-488v-264h488
zM583 756l-176 -144h-152l176 144h152z" />
    <glyph glyph-name="ocircumflex" unicode="&#xf4;" 
d="M808 174q0 -36 -13.5 -67.5t-37.5 -55.5t-55.5 -37.5t-67.5 -13.5h-428q-36 0 -67.5 13.5t-55.5 37.5t-37.5 55.5t-13.5 67.5v204q0 36 13.5 67.5t37.5 55.5t55.5 37.5t67.5 13.5h428q36 0 67.5 -13.5t55.5 -37.5t37.5 -55.5t13.5 -67.5v-204zM664 144v264h-488v-264h488
zM574 612h-116l-37 54l-37 -54h-116l74 108q13 19 33.5 30.5t45.5 11.5t45.5 -11.5t33.5 -30.5z" />
    <glyph glyph-name="otilde" unicode="&#xf5;" 
d="M808 174q0 -36 -13.5 -67.5t-37.5 -55.5t-55.5 -37.5t-67.5 -13.5h-428q-36 0 -67.5 13.5t-55.5 37.5t-37.5 55.5t-13.5 67.5v204q0 36 13.5 67.5t37.5 55.5t55.5 37.5t67.5 13.5h428q36 0 67.5 -13.5t55.5 -37.5t37.5 -55.5t13.5 -67.5v-204zM664 144v264h-488v-264h488
zM617 750l-74 -108q-13 -19 -33.5 -30.5t-45.5 -11.5t-45.5 11.5t-33.5 30.5l-17 24l-37 -54h-116l74 108q13 19 33.5 30.5t45.5 11.5t45.5 -11.5t33.5 -30.5l17 -24l37 54h116z" />
    <glyph glyph-name="odieresis" unicode="&#xf6;" 
d="M808 174q0 -36 -13.5 -67.5t-37.5 -55.5t-55.5 -37.5t-67.5 -13.5h-428q-36 0 -67.5 13.5t-55.5 37.5t-37.5 55.5t-13.5 67.5v204q0 36 13.5 67.5t37.5 55.5t55.5 37.5t67.5 13.5h428q36 0 67.5 -13.5t55.5 -37.5t37.5 -55.5t13.5 -67.5v-204zM664 144v264h-488v-264h488
zM597 612h-144v144h144v-144zM389 612h-144v144h144v-144z" />
    <glyph glyph-name="divide" unicode="&#xf7;" horiz-adv-x="584" 
d="M359 0h-144v144h144v-144zM359 408h-144v144h144v-144zM568 204h-552v144h552v-144z" />
    <glyph glyph-name="oslash" unicode="&#xf8;" 
d="M870 552l-98 -68q17 -22 26.5 -49t9.5 -57v-204q0 -36 -13.5 -67.5t-37.5 -55.5t-55.5 -37.5t-67.5 -13.5h-428q-26 0 -50 7t-44 20l-39 -27h-103l98 68q-17 22 -26.5 49t-9.5 57v204q0 36 13.5 67.5t37.5 55.5t55.5 37.5t67.5 13.5h428q26 0 50 -7t44 -20l39 27h103z
M664 144v264l-383 -264h383zM559 408h-383v-264z" />
    <glyph glyph-name="ugrave" unicode="&#xf9;" 
d="M808 0h-602q-36 0 -67.5 13.5t-55.5 37.5t-37.5 55.5t-13.5 67.5v378h144v-408h488v408h144v-552zM583 612h-152l-176 144h152z" />
    <glyph glyph-name="uacute" unicode="&#xfa;" 
d="M808 0h-602q-36 0 -67.5 13.5t-55.5 37.5t-37.5 55.5t-13.5 67.5v378h144v-408h488v408h144v-552zM583 756l-176 -144h-152l176 144h152z" />
    <glyph glyph-name="ucircumflex" unicode="&#xfb;" 
d="M808 0h-602q-36 0 -67.5 13.5t-55.5 37.5t-37.5 55.5t-13.5 67.5v378h144v-408h488v408h144v-552zM574 612h-116l-37 54l-37 -54h-116l74 108q13 19 33.5 30.5t45.5 11.5t45.5 -11.5t33.5 -30.5z" />
    <glyph glyph-name="udieresis" unicode="&#xfc;" 
d="M808 0h-602q-36 0 -67.5 13.5t-55.5 37.5t-37.5 55.5t-13.5 67.5v378h144v-408h488v408h144v-552zM597 612h-144v144h144v-144zM389 612h-144v144h144v-144z" />
    <glyph glyph-name="yacute" unicode="&#xfd;" 
d="M808 -30q0 -36 -13.5 -67.5t-37.5 -55.5t-55.5 -37.5t-67.5 -13.5h-602v144h632v60h-458q-36 0 -67.5 13.5t-55.5 37.5t-37.5 55.5t-13.5 67.5v378h144v-408h488v408h144v-582zM583 756l-176 -144h-152l176 144h152z" />
    <glyph glyph-name="thorn" unicode="&#xfe;" 
d="M808 174q0 -36 -13.5 -67.5t-37.5 -55.5t-55.5 -37.5t-67.5 -13.5h-458v-204h-144v960h144v-204h458q36 0 67.5 -13.5t55.5 -37.5t37.5 -55.5t13.5 -67.5v-204zM664 144v264h-488v-264h488z" />
    <glyph glyph-name="ydieresis" unicode="&#xff;" 
d="M808 -30q0 -36 -13.5 -67.5t-37.5 -55.5t-55.5 -37.5t-67.5 -13.5h-602v144h632v60h-458q-36 0 -67.5 13.5t-55.5 37.5t-37.5 55.5t-13.5 67.5v378h144v-408h488v408h144v-582zM597 612h-144v144h144v-144zM389 612h-144v144h144v-144z" />
    <glyph glyph-name="dotlessi" unicode="&#x131;" horiz-adv-x="208" 
d="M176 0h-144v552h144v-552z" />
    <glyph glyph-name="OE" unicode="&#x152;" horiz-adv-x="1472" 
d="M1440 0h-570q-41 0 -75.5 17t-58.5 46q-24 -29 -58.5 -46t-75.5 -17h-396q-36 0 -67.5 13.5t-55.5 37.5t-37.5 55.5t-13.5 67.5v204q0 36 13.5 67.5t37.5 55.5t55.5 37.5t67.5 13.5h396q41 0 75.5 -17t58.5 -46q24 29 58.5 46t75.5 17h570v-144h-632v-60h632v-144h-632
v-60h632v-144zM664 144v264h-488v-264h488z" />
    <glyph glyph-name="oe" unicode="&#x153;" horiz-adv-x="1472" 
d="M1440 0h-570q-41 0 -75.5 17t-58.5 46q-24 -29 -58.5 -46t-75.5 -17h-396q-36 0 -67.5 13.5t-55.5 37.5t-37.5 55.5t-13.5 67.5v204q0 36 13.5 67.5t37.5 55.5t55.5 37.5t67.5 13.5h396q41 0 75.5 -17t58.5 -46q24 29 58.5 46t75.5 17h396q36 0 67.5 -13.5t55.5 -37.5
t37.5 -55.5t13.5 -67.5v-174h-632v-60h632v-144zM1296 348v60h-488v-60h488zM664 144v264h-488v-264h488z" />
    <glyph glyph-name="Scaron" unicode="&#x160;" horiz-adv-x="814" 
d="M808 174q0 -36 -13.5 -67.5t-37.5 -55.5t-55.5 -37.5t-67.5 -13.5h-602v144h632v60h-484q-36 0 -68 13.5t-55.5 37.5t-37 55.5t-13.5 67.5t13.5 67.5t37 55.5t55.5 37.5t68 13.5h602v-144h-632v-60h484q36 0 67.5 -13.5t55.5 -37.5t37.5 -55.5t13.5 -67.5zM561 756
l-74 -108q-13 -19 -34 -30.5t-45 -11.5q-25 0 -45.5 11.5t-34.5 30.5l-74 108h117l37 -54l37 54h116z" />
    <glyph glyph-name="scaron" unicode="&#x161;" horiz-adv-x="814" 
d="M808 174q0 -36 -13.5 -67.5t-37.5 -55.5t-55.5 -37.5t-67.5 -13.5h-602v144h632v60h-484q-36 0 -68 13.5t-55.5 37.5t-37 55.5t-13.5 67.5t13.5 67.5t37 55.5t55.5 37.5t68 13.5h602v-144h-632v-60h484q36 0 67.5 -13.5t55.5 -37.5t37.5 -55.5t13.5 -67.5zM561 756
l-74 -108q-13 -19 -34 -30.5t-45 -11.5q-25 0 -45.5 11.5t-34.5 30.5l-74 108h117l37 -54l37 54h116z" />
    <glyph glyph-name="Ydieresis" unicode="&#x178;" horiz-adv-x="869" 
d="M901 552l-363 -349q-15 -15 -32 -25v-178h-144v178q-8 5 -16 11t-15 14l-363 349h212l254 -254l255 254h212zM613 612h-144v144h144v-144zM405 612h-144v144h144v-144z" />
    <glyph glyph-name="Zcaron" unicode="&#x17d;" horiz-adv-x="844" 
d="M838 404q0 -27 -9 -51t-25.5 -43.5t-38.5 -32.5t-47 -18l-600 -115h694v-144h-662q-31 0 -58 11.5t-47 31.5t-31.5 47t-11.5 58q0 27 9 51t25.5 43.5t38 32.5t47.5 18l600 115h-690v144h658q31 0 58 -11.5t47 -31.5t31.5 -47t11.5 -58zM572 756l-74 -108
q-13 -19 -34 -30.5t-45 -11.5q-25 0 -45.5 11.5t-34.5 30.5l-74 108h117l37 -54l37 54h116z" />
    <glyph glyph-name="zcaron" unicode="&#x17e;" horiz-adv-x="844" 
d="M838 404q0 -27 -9 -51t-25.5 -43.5t-38.5 -32.5t-47 -18l-600 -115h694v-144h-662q-31 0 -58 11.5t-47 31.5t-31.5 47t-11.5 58q0 27 9 51t25.5 43.5t38 32.5t47.5 18l600 115h-690v144h658q31 0 58 -11.5t47 -31.5t31.5 -47t11.5 -58zM572 756l-74 -108
q-13 -19 -34 -30.5t-45 -11.5q-25 0 -45.5 11.5t-34.5 30.5l-74 108h117l37 -54l37 54h116z" />
    <glyph glyph-name="florin" unicode="&#x192;" horiz-adv-x="808" 
d="M792 204h-480v-30q0 -36 -13.5 -67.5t-37.5 -55.5t-55.5 -37.5t-67.5 -13.5h-122v144h152v60h-152v144h152v30q0 36 13.5 67.5t37.5 55.5t55.5 37.5t67.5 13.5h450v-144h-480v-60h480v-144z" />
    <glyph glyph-name="circumflex" unicode="&#x2c6;" horiz-adv-x="208" 
d="M257 612h-116l-37 54l-37 -54h-116l74 108q13 19 33.5 30.5t45.5 11.5t45.5 -11.5t33.5 -30.5z" />
    <glyph glyph-name="caron" unicode="&#x2c7;" horiz-adv-x="208" 
d="M258 756l-74 -108q-13 -19 -34 -30.5t-45 -11.5q-25 0 -45.5 11.5t-34.5 30.5l-74 108h117l37 -54l37 54h116z" />
    <glyph glyph-name="ring" unicode="&#x2da;" horiz-adv-x="208" 
d="M249 745q0 -30 -11.5 -56.5t-31 -46t-45.5 -31t-56 -11.5t-56.5 11.5t-46 31t-31 46t-11.5 56.5t11.5 56t31 45.5t46 31t56.5 11.5t56 -11.5t45.5 -31t31 -45.5t11.5 -56zM156 693v103h-102v-103h102z" />
    <glyph glyph-name="tilde" unicode="&#x2dc;" horiz-adv-x="208" 
d="M305 750l-74 -108q-13 -19 -33.5 -30.5t-45.5 -11.5t-45.5 11.5t-33.5 30.5l-17 24l-37 -54h-116l74 108q13 19 33.5 30.5t45.5 11.5t45.5 -11.5t33.5 -30.5l17 -24l37 54h116z" />
    <glyph glyph-name="endash" unicode="&#x2013;" horiz-adv-x="584" 
d="M568 204h-552v144h552v-144z" />
    <glyph glyph-name="emdash" unicode="&#x2014;" horiz-adv-x="751" 
d="M735 204h-719v144h719v-144z" />
    <glyph glyph-name="quoteleft" unicode="&#x2018;" horiz-adv-x="208" 
d="M176 204h-144v182q0 33 10.5 62.5t30 53t45.5 39t58 21.5v-151h-49v-63h49v-144z" />
    <glyph glyph-name="quoteright" unicode="&#x2019;" horiz-adv-x="208" 
d="M176 370q0 -33 -10.5 -62.5t-30 -53t-46 -39t-57.5 -21.5v151h49v63h-49v144h144v-182z" />
    <glyph glyph-name="quotesinglbase" unicode="&#x201a;" horiz-adv-x="208" 
d="M176 -38q0 -33 -10.5 -62.5t-30 -53t-46 -39t-57.5 -21.5v151h49v63h-49v144h144v-182z" />
    <glyph glyph-name="quotedblleft" unicode="&#x201c;" horiz-adv-x="400" 
d="M368 204h-144v182q0 33 10.5 62.5t30 53t45.5 39t58 21.5v-151h-49v-63h49v-144zM176 204h-144v182q0 33 10.5 62.5t30 53t45.5 39t58 21.5v-151h-49v-63h49v-144z" />
    <glyph glyph-name="quotedblright" unicode="&#x201d;" horiz-adv-x="400" 
d="M368 370q0 -33 -10.5 -62.5t-30 -53t-46 -39t-57.5 -21.5v151h49v63h-49v144h144v-182zM176 370q0 -33 -10.5 -62.5t-30 -53t-46 -39t-57.5 -21.5v151h49v63h-49v144h144v-182z" />
    <glyph glyph-name="quotedblbase" unicode="&#x201e;" horiz-adv-x="400" 
d="M368 -38q0 -33 -10.5 -62.5t-30 -53t-46 -39t-57.5 -21.5v151h49v63h-49v144h144v-182zM176 -38q0 -33 -10.5 -62.5t-30 -53t-46 -39t-57.5 -21.5v151h49v63h-49v144h144v-182z" />
    <glyph glyph-name="dagger" unicode="&#x2020;" horiz-adv-x="352" 
d="M224 48h-96v264h-96v96h96v96h96v-96h96v-96h-96v-264z" />
    <glyph glyph-name="daggerdbl" unicode="&#x2021;" horiz-adv-x="352" 
d="M224 48h-96v96h-96v96h96v72h-96v96h96v96h96v-96h96v-96h-96v-72h96v-96h-96v-96z" />
    <glyph glyph-name="bullet" unicode="&#x2022;" horiz-adv-x="359" 
d="M353 276q0 -36 -13.5 -67.5t-37.5 -55.5t-55.5 -37.5t-67.5 -13.5t-67.5 13.5t-55 37.5t-37 55.5t-13.5 67.5t13.5 67.5t37 55.5t55 37.5t67.5 13.5t67.5 -13.5t55.5 -37.5t37.5 -55.5t13.5 -67.5z" />
    <glyph glyph-name="ellipsis" unicode="&#x2026;" horiz-adv-x="624" 
d="M592 0h-144v144h144v-144zM384 0h-144v144h144v-144zM176 0h-144v144h144v-144z" />
    <glyph glyph-name="perthousand" unicode="&#x2030;" horiz-adv-x="1236" 
d="M856 161q0 -36 -13.5 -67.5t-37.5 -55t-55.5 -37t-67.5 -13.5t-67.5 13.5t-55 37t-37 55t-13.5 67.5t13.5 67.5t37 55.5t55 37.5t67.5 13.5t67.5 -13.5t55.5 -37.5t37.5 -55.5t13.5 -67.5zM711 133v57h-58v-57h58zM763 552l-552 -552h-103l552 552h103zM363 396
q0 -36 -13.5 -67.5t-37.5 -55.5t-55.5 -37.5t-67.5 -13.5t-67.5 13.5t-55 37.5t-37 55.5t-13.5 67.5t13.5 67.5t37 55t55 37t67.5 13.5t67.5 -13.5t55.5 -37t37.5 -55t13.5 -67.5zM218 367v58h-57v-58h57zM1220 161q0 -36 -13.5 -67.5t-37.5 -55t-55.5 -37t-67.5 -13.5
t-67.5 13.5t-55 37t-37 55t-13.5 67.5t13.5 67.5t37 55.5t55 37.5t67.5 13.5t67.5 -13.5t55.5 -37.5t37.5 -55.5t13.5 -67.5zM1075 133v57h-58v-57h58z" />
    <glyph glyph-name="guilsinglleft" unicode="&#x2039;" horiz-adv-x="318" 
d="M318 96h-204q-21 21 -40.5 40t-34.5 39.5t-24 44.5t-9 56t9 56t24 44.5t34.5 39.5t40.5 40h204l-180 -180z" />
    <glyph glyph-name="guilsinglright" unicode="&#x203a;" horiz-adv-x="318" 
d="M312 276q0 -32 -9 -56t-24 -44.5t-34.5 -39.5t-40.5 -40h-204l180 180l-180 180h204q21 -21 40.5 -40t34.5 -39.5t24 -44.5t9 -56z" />
    <glyph glyph-name="fraction" unicode="&#x2044;" horiz-adv-x="247" 
d="M451 552l-552 -552h-103l552 552h103z" />
    <glyph glyph-name="Euro" unicode="&#x20ac;" horiz-adv-x="855" 
d="M839 0h-602q-36 0 -67.5 13.5t-55.5 37.5t-37.5 55.5t-13.5 67.5v30h-47v48h47v48h-47v48h47v30q0 36 13.5 67.5t37.5 55.5t55.5 37.5t67.5 13.5h602v-144h-632v-60h296v-48h-296v-48h296v-48h-296v-60h632v-144z" />
    <glyph glyph-name="trademark" unicode="&#x2122;" horiz-adv-x="672" 
d="M640 368h-48v140l-70 -120q-14 -24 -42 -24t-41 24l-71 120v-140h-48v140q0 20 14 34t34 14q28 0 43 -26l69 -118l70 118q15 26 42 26q20 0 34 -14t14 -34v-140zM288 504h-112v-136h-48v136h-112v48h272v-48z" />
    <glyph glyph-name="glyph220" horiz-adv-x="527" 
d="M521 238q0 -23 -8.5 -42.5t-23.5 -34.5t-35 -23.5t-43 -8.5h-288v-38h382v-91h-473v110q0 22 8.5 42t23.5 35t35 23.5t43 8.5h288v38h-398v91h379q23 0 43 -8.5t35 -23.5t23.5 -35t8.5 -43z" />
    <glyph glyph-name="glyph221" horiz-adv-x="536" 
d="M520 91h-60v-91h-91v91h-270q-19 0 -36 7t-29.5 20t-20 29.5t-7.5 36.5q0 25 11.5 45t31.5 33l132 86h160l-252 -167h280v167h91v-167h60v-90z" />
    <glyph glyph-name="glyph226" horiz-adv-x="0" 
 />
  </font>
</defs>
</svg>
