<?xml version="1.0" encoding="UTF-8"?><svg xmlns="http://www.w3.org/2000/svg" viewBox="0 0 242.13 37.8"><defs><style>.cls-1{isolation:isolate;}.cls-2,.cls-3,.cls-4{mix-blend-mode:color-dodge;}.cls-2,.cls-5{fill:#2b3990;}.cls-6{fill:#00a79d;}.cls-4{opacity:.3;}</style></defs><g class="cls-1"><g id="Layer_2"><g id="Layer_1-2"><g><g class="cls-4"><polygon class="cls-6" points="208.77 .08 33.34 .08 6.24 18.9 33.34 37.72 208.77 37.72 235.87 18.9 208.77 .08"/></g><polygon class="cls-2" points="0 18.73 15.2 29.56 18.83 29.56 3.63 18.73 20.36 7.57 16.72 7.57 0 18.73"/><polygon class="cls-2" points="0 18.73 15.2 29.56 18.83 29.56 3.63 18.73 20.36 7.57 16.72 7.57 0 18.73"/><polygon class="cls-2" points="242.13 18.73 226.94 29.56 223.3 29.56 238.5 18.73 221.78 7.57 225.41 7.57 242.13 18.73"/><polygon class="cls-2" points="242.13 18.73 226.94 29.56 223.3 29.56 238.5 18.73 221.78 7.57 225.41 7.57 242.13 18.73"/><g class="cls-3"><polygon class="cls-5" points="209.17 37.8 208.38 37.63 235.35 18.9 208.38 .17 209.17 0 236.39 18.9 236.27 19.02 209.17 37.8"/></g><g class="cls-3"><polygon class="cls-5" points="32.94 37.8 5.72 18.9 5.84 18.78 32.94 0 33.73 .17 6.76 18.9 33.73 37.63 32.94 37.8"/></g></g></g></g></g></svg>